<?xml version="1.0" standalone="no"?>
<!DOCTYPE svg PUBLIC "-//W3C//DTD SVG 1.1//EN" "http://www.w3.org/Graphics/SVG/1.1/DTD/svg11.dtd">
<svg xmlns="http://www.w3.org/2000/svg">
<defs >
<font id="CrimsonText" horiz-adv-x="470" ><font-face
    font-family="Crimson Text SemiBold"
    units-per-em="1024"
    panose-1="0 0 0 0 0 0 0 0 0 0"
    ascent="972"
    descent="-359"
    alphabetic="0" />
<glyph unicode=" " glyph-name="space" horiz-adv-x="209" />
<glyph unicode="!" glyph-name="exclam" horiz-adv-x="178" d="M85 170Q78 168 74 174T68 191L33 570Q30 603 48 622T92 642Q115 642 130 623T145 576Q145 531 139 469T124 337T109 201Q108 186 102 180T85 170ZM90 -12Q56 -12 40 9T23 56Q23 81 39 102T90 123Q123
123 139 102T156 55Q156 30 140 9T90 -12Z" />
<glyph unicode="&quot;" glyph-name="quotedbl" horiz-adv-x="321" d="M334 434Q320 434 319 447Q317 470 312 497T300 555Q285 617 285 635Q285 646 293 660T314 686T339 698H356Q372 698 379 686Q386 673 386 633Q386 604 371 542Q363 511 359 488T352 449Q351
434 334 434ZM241 434Q227 434 226 447Q224 470 219 497T207 555Q192 617 192 635Q192 646 200 660T221 686T246 698H263Q279 698 286 686Q293 673 293 633Q293 604 278 542Q270 511 266 488T259 449Q258 434 241 434Z" />
<glyph unicode="#" glyph-name="numbersign" horiz-adv-x="472" d="M107 15Q95 15 93 24L116 173H32Q26 173 26 183Q26 193 28 204T34 229Q35 234 40 234H125L137 314H32Q26 316 26 325Q26 335 28 346T34 371Q35 376 40 376H146L170 530Q170 539 222 539Q233 539
232 530L209 376H297L321 530Q321 539 373 539Q385 539 383 530L359 376H439Q446 376 446 369Q446 350 437 321L431 314H350L337 234H439Q446 234 446 227Q446 208 437 179Q435 175 435 175Q433 173 432 173H329L305 24Q296 15 275 15H257Q244 15 244 22L266 173H178L156
24Q156 20 148 18T125 15H107ZM187 234H276L288 314H200L187 234Z" />
<glyph unicode="$" glyph-name="dollar" horiz-adv-x="457" d="M186 -46Q148 -46 148 -37L154 -4Q148 -3 142 -2L109 4Q101 6 87 8T62 13T50 16Q40 49 34 87T25 170Q24 180 42 180Q61 180 68 174Q73 154 82 135T109 92Q129 64 162 50L200 276Q178 288 164 296T137
313T107 336Q94 346 84 355T67 373Q54 390 44 415T33 470Q33 520 61 559T134 621T230 644Q245 644 260 642L266 676Q302 676 302 668L297 637Q325 632 346 626T379 620Q387 576 391 539T396 471Q393 462 377 462Q357 463 355 471Q353 491 335 523T287 576L254 370V370L280
355L307 339Q315 335 331 324T355 307Q363 301 375 290T394 270Q409 250 420 228T432 170Q432 118 402 78T323 15T218 -8Q205 -8 192 -7L186 -46ZM134 506Q134 473 155 447T219 392L252 593Q240 596 228 596Q183 596 159 573T134 506ZM324 143Q324 175 313 194T282
227T235 256L200 40Q211 38 222 38Q264 38 294 66T324 143Z" />
<glyph unicode="%" glyph-name="percent" horiz-adv-x="645" d="M176 331Q134 331 99 351T44 407T23 486Q23 530 43 565T98 622T176 643Q220 643 254 622T309 566T329 486Q329 444 309 409T255 352T176 331ZM77 -8Q52 -8 49 4L531 628Q541 641 550 641Q574 641
593 626L111 4Q104 -8 77 -8ZM183 363Q217 363 232 394T247 471Q247 509 239 541T213 593T169 613Q135 613 119 580T103 503Q103 467 112 435T140 383T183 363ZM469 -3Q427 -3 392 17T336 73T315 152Q315 196 335 231T391 288T469 309Q513 309 547 288T601 232T621
152Q621 110 602 75T548 19T469 -3ZM475 28Q509 28 524 60T539 137Q539 175 531 207T506 258T463 278Q429 278 412 245T395 169Q395 133 404 101T432 49T475 28Z" />
<glyph unicode="&amp;" glyph-name="ampersand" horiz-adv-x="681" d="M222 -4Q137 -4 82 38T26 160Q26 206 48 241T107 303T182 352Q160 387 142 425T124 510Q124 554 145 587T203 638T286 656Q358 656 400 624T443 538Q443 477 406 435T298 350Q349 266 428
172Q483 248 483 266Q483 279 468 281T438 284Q435 290 435 300Q435 311 438 312H530Q540 312 567 313T640 316Q645 313 645 300Q645 283 638 282Q626 282 603 277T570 264Q563 260 547 238T510 185T464 127Q471 118 485 103T517 76T547 64Q564 64 581 81T606 112Q614
112 623 105T632 92Q627 81 611 58T570 17T510 -2Q480 -2 451 14T408 46L394 62Q319 -4 222 -4ZM270 396Q315 424 335 451T356 527Q356 559 338 585T288 612Q256 612 238 589T220 534Q220 487 270 396ZM256 48Q284 48 312 62T359 98Q345 113 324 141T280 203T239
262L213 301Q177 276 158 247T138 168Q138 108 172 78T256 48Z" />
<glyph unicode="&apos;" glyph-name="quotesingle" horiz-adv-x="201" d="M100 434Q86 434 85 447Q83 470 78 497T66 555Q51 617 51 635Q51 646 59 660T80 686T105 698H122Q138 698 145 686Q152 673 152 633Q152 604 137 542Q129 511 125 488T118 449Q117 434 100 434Z" />
<glyph unicode="(" glyph-name="parenleft" horiz-adv-x="281" d="M247 -129Q224 -129 190 -94T120 -9Q95 28 74 78T40 187T27 305Q27 365 39 424T72 534T117 624Q153 680 189 714T247 748Q252 748 255 739T259 722Q259 720 258 720Q234 706 210 667T165 570T133
445T121 305Q121 232 135 163T170 38T214 -54T257 -100Q259 -102 259 -106Q259 -112 256 -120T247 -129Z" />
<glyph unicode=")" glyph-name="parenright" horiz-adv-x="282" d="M35 -129Q30 -129 26 -121T22 -106Q22 -102 24 -100Q43 -91 66 -54T111 39T146 164T160 305Q160 377 148 445T116 570T72 666T24 720Q22 720 22 722Q22 728 26 738T35 748Q58 748 94 713T167
622Q191 584 211 533T243 423T255 305Q255 247 243 190T210 82T164 -6Q130 -57 95 -93T35 -129Z" />
<glyph unicode="*" glyph-name="asterisk" horiz-adv-x="415" d="M188 298Q172 298 163 310T153 339Q153 360 175 404Q183 421 188 434T194 458Q194 468 191 470T181 470Q171 467 159 463T130 451Q111 441 95 436T66 430Q49 430 37 439T24 465Q24 487 41 495T79
504Q98 504 128 501T179 498Q187 498 189 503T187 515Q183 523 175 534T153 558Q140 572 126 591T111 629Q111 640 118 652T145 664Q163 664 173 651T189 618T198 581Q202 562 205 549T213 526Q220 512 231 523Q247 541 260 567T289 613T328 633Q342 633 351 624T361
600Q361 577 339 561T297 534Q280 524 268 517T249 502Q245 498 245 492T253 483Q276 473 308 469T363 452Q389 440 389 415Q389 400 379 391T353 381Q335 381 317 396T284 424Q255 450 238 460Q231 465 226 461T221 450Q220 443 221 428T226 383Q230 352 223 325T188
298Z" />
<glyph unicode="+" glyph-name="plus" horiz-adv-x="531" d="M239 6Q233 6 233 14V209Q233 214 227 214H32Q26 214 26 224Q26 235 28 247T34 273Q35 278 40 278H228Q233 278 233 284V470Q231 475 238 477Q252 481 264 483T287 485L297 479V283Q297 278 301 278H497Q505
278 505 272Q505 256 495 220Q493 216 493 216Q491 214 490 214H301Q297 214 297 211V23Q290 13 245 7H242Q241 6 239 6Z" />
<glyph unicode="," glyph-name="comma" horiz-adv-x="213" d="M47 -166Q42 -166 33 -156T24 -138Q24 -137 41 -122Q58 -107 75 -79T92 -16Q92 -2 85 12T70 40T62 69Q62 90 83 111T138 132Q160 132 170 126Q184 96 184 56Q184 3 150 -58T48 -166H47Z" />
<glyph unicode="-" glyph-name="hyphen" horiz-adv-x="324" d="M38 196Q31 196 31 207Q31 264 43 264L286 276Q292 276 292 267Q292 242 288 228T282 211L279 207L38 196Z" />
<glyph unicode="." glyph-name="period" horiz-adv-x="191" d="M97 -12Q63 -12 47 9T30 56Q30 81 46 102T97 123Q130 123 146 102T163 55Q163 30 147 9T97 -12Z" />
<glyph unicode="/" glyph-name="slash" horiz-adv-x="416" d="M39 -35Q34 -35 29 -34T21 -28L317 739Q327 761 366 761Q383 761 395 755L99 -12Q97 -19 80 -27T39 -35Z" />
<glyph unicode="0" glyph-name="zero" horiz-adv-x="505" d="M253 -3Q208 -3 167 22T95 91T45 192T27 315Q27 380 45 437T94 539T167 608T253 633Q298 633 338 608T409 539T458 438T476 315Q476 250 459 193T410 91T338 22T253 -3ZM254 41Q305 41 333 120Q361
198 361 321Q361 437 332 515Q302 590 254 590Q206 590 174 513Q143 436 143 316Q143 201 175 120Q206 41 254 41Z" />
<glyph unicode="1" glyph-name="one" horiz-adv-x="380" d="M79 -4Q75 0 75 15Q75 30 79 30Q87 30 102 33T130 42T144 52Q150 76 150 110V458Q150 484 147 500T133 516Q126 516 109 507L66 482Q60 485 55 493T50 507Q50 514 52 516Q137 573 191 607T252 642H254Q262
642 266 624Q257 593 257 530V132Q257 84 265 52Q267 47 279 42T306 33T327 30Q330 30 330 10Q330 -1 329 -4Q328 -4 313 -3T277 0T236 2T203 3Q191 3 171 2T131 0T96 -2T79 -4Z" />
<glyph unicode="2" glyph-name="two" horiz-adv-x="505" d="M60 0Q50 6 48 32Q99 86 145 144T226 259T282 366T302 455Q302 504 277 535T210 566Q183 566 162 556T126 533Q113 521 102 506T90 488Q83 488 75 495T66 509Q72 524 85 543T121 587Q144 610 179 626T256
642Q304 642 339 620T395 560T415 474Q415 443 405 413Q395 380 383 354T346 294Q327 269 314 251T283 215T238 168T161 95Q158 93 159 90T164 87H346Q369 87 385 100Q400 112 406 126T420 170Q423 179 436 179Q448 179 456 174L423 15Q422 0 407 0H60Z" />
<glyph unicode="3" glyph-name="three" horiz-adv-x="505" d="M190 -4Q116 -4 67 28Q59 39 59 56Q59 79 68 94T98 110Q111 110 123 101T145 82T155 70Q183 42 229 42Q273 42 304 77T335 184Q335 242 302 281T219 320Q194 320 159 314Q151 324 151 342Q151 350
154 354Q217 365 254 401T291 494Q291 532 268 555T217 578Q198 578 181 572T150 557Q138 549 130 540T121 531Q116 531 110 540T103 558Q165 642 267 642Q296 642 323 628T369 586T387 520Q387 438 303 378Q329 374 362 353T420 295T445 210Q445 144 408 95Q371
45 314 21T190 -4Z" />
<glyph unicode="4" glyph-name="four" horiz-adv-x="505" d="M347 -6Q299 -6 299 5V174H48Q37 188 37 214Q70 253 206 431Q273 519 311 569T360 632Q371 644 385 644Q401 644 401 634V238H452Q468 238 468 184Q468 179 460 174H401V2Q387 -6 347 -6ZM126 238H299V472Q299
480 295 480L293 478L120 250Q119 249 119 247Q119 238 126 238Z" />
<glyph unicode="5" glyph-name="five" horiz-adv-x="505" d="M193 -4Q117 -4 68 28Q60 39 60 57Q60 79 69 94T99 110Q112 110 124 102T145 83T156 70Q184 42 232 42Q277 42 305 81T334 182Q334 243 301 284T206 326Q154 326 112 313Q102 317 94 327L122 487L146
630Q253 632 314 634T390 640Q397 632 397 612Q397 572 388 548Q362 545 329 544T263 541T210 540T186 539Q177 537 176 530L152 395Q171 400 193 403T240 406Q293 406 339 381T415 313T445 220Q445 156 412 105T322 25T193 -4Z" />
<glyph unicode="6" glyph-name="six" horiz-adv-x="505" d="M253 -6Q198 -6 152 22T79 98T52 205Q52 284 84 356T170 483Q223 538 284 578T414 646Q422 645 427 635T434 616Q343 576 277 513T185 364Q181 353 186 349L188 350Q201 357 227 365T275 374Q325 374
365 348T430 280T454 190Q454 138 426 93T353 21T253 -6ZM259 40Q299 40 322 75T345 176Q345 243 319 282T238 322Q217 322 198 312T174 286Q169 271 167 250T163 200Q163 130 189 85T259 40Z" />
<glyph unicode="7" glyph-name="seven" horiz-adv-x="505" d="M157 -8Q145 -8 134 2T122 22L382 544H149Q137 544 127 538T111 527Q106 522 98 506Q91 490 89 485T81 462Q80 457 64 456T42 459Q59 531 68 572T79 624Q82 636 97 636H389L430 637Q443 638 449 638T456
638Q463 638 463 630Q463 617 435 562L166 -6Q162 -8 157 -8Z" />
<glyph unicode="8" glyph-name="eight" horiz-adv-x="505" d="M248 -8Q164 -8 109 35T54 156Q54 182 64 206T86 246Q96 259 120 278Q135 290 142 295T157 304T177 316Q179 318 179 320Q179 323 176 324Q154 341 131 361T93 410T77 483Q77 526 102 561T167 617T252
638Q302 638 342 620T407 569T432 490Q432 411 322 342Q319 342 319 340T322 336Q347 321 377 297T428 241T450 168Q450 118 422 78T348 15T248 -8ZM276 373Q278 373 282 375Q332 413 332 484Q332 531 311 562T251 594Q218 594 199 567T179 493Q179 466 196 440Q213
415 227 404T266 376Q271 373 276 373ZM252 36Q293 36 317 64T342 136Q342 206 232 280L228 282Q223 286 218 286H214Q160 253 160 158Q160 107 186 72T252 36Z" />
<glyph unicode="9" glyph-name="nine" horiz-adv-x="505" d="M102 -6Q94 -5 88 7T82 26Q136 48 183 85T267 171T319 276Q323 287 318 291L316 290Q306 282 281 275T234 267Q184 267 143 292T77 358T52 449Q52 502 79 546T153 618T252 646Q308 646 353 618T425
543T452 435Q452 356 421 283T336 154Q230 43 102 -6ZM267 318Q288 318 307 328T331 354Q336 368 338 390T342 440Q342 510 316 555T244 600Q205 600 183 565T160 462Q160 397 186 358T267 318Z" />
<glyph unicode=":" glyph-name="colon" horiz-adv-x="190" d="M97 -12Q63 -12 47 9T30 56Q30 81 46 102T97 123Q130 123 146 102T163 55Q163 30 147 9T97 -12ZM97 296Q63 296 47 317T30 364Q30 389 46 410T97 431Q130 431 146 410T163 363Q163 338 147 317T97 296Z" />
<glyph unicode=";" glyph-name="semicolon" horiz-adv-x="215" d="M302 -164Q297 -164 288 -154T279 -136Q279 -135 296 -120Q313 -105 330 -77T347 -14Q347 0 340 14T325 42T317 71Q317 92 338 113T393 134Q415 134 425 128Q439 98 439 58Q439 5 405 -56T303
-164H302ZM122 296Q88 296 72 317T55 364Q55 389 71 410T122 431Q155 431 171 410T188 363Q188 338 172 317T122 296Z" />
<glyph unicode="&lt;" glyph-name="less" horiz-adv-x="464" d="M423 -15L418 -13L43 177Q25 188 25 217Q25 232 43 241L414 428L419 430Q426 430 436 378L433 369L111 209L436 46Q439 45 439 40Q439 36 436 23T430 -3T423 -15Z" />
<glyph unicode="=" glyph-name="equal" horiz-adv-x="528" d="M38 255Q31 255 31 265Q36 319 46 319H495Q499 319 499 314Q499 297 489 261Q487 257 487 257Q485 255 484 255H38ZM38 113Q31 113 31 123Q31 141 40 172Q41 177 46 177H491Q499 177 499 172Q499 155
489 119Q487 115 487 115Q485 113 484 113H38Z" />
<glyph unicode="&gt;" glyph-name="greater" horiz-adv-x="466" d="M42 -15Q40 -15 36 -3T29 22T26 40L29 46L354 209L32 369L29 378Q39 430 46 430L51 428L422 241Q440 232 440 217Q440 188 422 177L47 -13Q41 -15 42 -15Z" />
<glyph unicode="?" glyph-name="question" horiz-adv-x="326" d="M82 176Q68 176 68 262Q68 296 73 315T90 347T125 376Q147 391 172 403T217 434T236 482Q236 511 215 531T165 551Q151 551 125 546T85 541Q61 541 43 556T25 594Q25 613 31 632Q57 644 76 644Q136
644 187 621T271 556T303 460Q303 396 276 361T193 298Q177 290 168 286T150 276Q125 261 118 252T110 213Q110 193 108 187Q100 176 82 176ZM92 -12Q58 -12 42 9T25 56Q25 81 41 102T92 123Q125 123 141 102T158 55Q158 30 142 9T92 -12Z" />
<glyph unicode="@" glyph-name="at" horiz-adv-x="781" d="M389 -171Q309 -171 243 -139T128 -55T54 60T27 185Q27 275 57 347T143 471T271 549T432 577Q506 577 565 547T666 466T731 355T754 233Q754 169 735 113T676 22T572 -13Q540 -13 514 1T472 36T456 80Q456
81 455 81T451 78Q442 60 419 41T367 7T310 -7Q275 -7 249 14T210 70T196 141Q196 213 231 274T329 372T476 410L571 401Q569 385 567 372T564 348L541 134Q540 124 540 117T539 106Q538 30 582 30Q616 30 638 47T674 93T692 153T698 214Q698 301 664 371T567 482T421
524Q352 524 293 502T189 439T119 343T94 223Q94 117 131 39T247 -82T444 -126Q462 -126 478 -122T505 -112L514 -108L516 -118Q516 -137 493 -149T440 -166T389 -171ZM338 53Q356 53 376 67T414 102T443 143T456 176L470 322Q472 330 472 334Q472 348 462 353T430
359Q394 359 362 333T310 258T290 143Q290 53 338 53Z" />
<glyph unicode="A" glyph-name="A" horiz-adv-x="736" d="M31 -3Q27 1 27 12Q27 30 29 30Q37 30 52 34T82 44T101 58Q111 73 120 92T139 136L325 586Q349 647 362 658Q369 665 379 665Q386 665 391 660L601 136Q609 117 616 99T631 63Q635 53 649 46T678 34T701
30Q705 30 705 12Q705 1 703 -3L577 3L447 -3Q443 1 443 16Q443 30 447 30Q459 30 480 36T505 50Q508 56 508 63Q508 73 503 90T489 132L454 225Q450 229 447 229Q431 230 410 230T361 231Q307 231 247 228Q241 228 241 224L203 131Q193 106 189 90T184 66Q184
54 195 46Q201 42 213 39T239 33T257 30Q260 29 260 16Q260 9 260 5T258 -3Q221 -1 198 1T154 3T106 2T31 -3ZM343 285Q379 285 425 288L427 292L351 492L269 292Q269 288 271 288Q306 285 343 285Z" />
<glyph unicode="B" glyph-name="B" horiz-adv-x="586" d="M30 -3Q27 0 27 13Q27 30 30 30Q39 30 53 33T81 41T97 52Q104 72 104 143V521Q104 582 97 603Q95 611 83 616T55 625T29 628Q25 628 25 643Q25 657 29 661Q95 658 162 658L248 659H308Q383 659 450 623Q484
604 505 569T527 488Q527 453 506 421Q485 390 467 378T435 360Q427 357 431 354Q456 350 485 328T537 269T559 187Q559 130 528 88T439 23T305 0L163 1L30 -3ZM277 372Q314 372 333 378Q406 394 406 476Q406 611 291 611Q245 611 227 606Q219 604 219 595L217
499V382Q217 372 277 372ZM293 50Q315 50 336 54T382 71Q406 82 421 109T437 176Q437 240 402 281T287 323Q273 323 258 322T225 318Q217 313 217 298V112Q217 71 229 60Q242 50 293 50Z" />
<glyph unicode="C" glyph-name="C" horiz-adv-x="639" d="M343 -6Q277 -6 220 20T118 91T50 195T25 322Q25 393 50 455T120 565T225 640T354 667Q467 667 590 640Q592 640 593 621T596 575T598 525T599 494Q599 479 575 479Q568 479 561 483Q557 501 547 520T515
563Q494 587 453 602T358 618Q293 618 247 581T176 481T151 343Q151 259 178 191T259 83T386 42Q474 42 527 98Q543 115 551 136T565 174T574 191Q609 191 613 182Q613 176 609 154T598 105T586 58T575 36Q488 -6 343 -6Z" />
<glyph unicode="D" glyph-name="D" horiz-adv-x="708" d="M30 -3Q27 0 27 13Q27 30 30 30Q39 30 53 33T81 41T97 52Q104 72 104 143V521Q104 582 97 603Q95 611 83 616T55 625T29 628Q25 628 25 643Q25 657 29 661Q95 658 162 658H335Q416 658 480 633T589 562T657
459T681 336Q681 240 640 164T520 42T334 -3Q324 -3 304 -3T252 -1Q221 0 199 1T163 1L30 -3ZM350 48Q553 48 553 340Q553 415 529 475T458 572T343 608H338Q242 608 230 592Q217 575 217 530V138Q217 83 228 64Q244 48 350 48Z" />
<glyph unicode="E" glyph-name="E" horiz-adv-x="584" d="M30 -3Q27 0 27 13Q27 30 30 30Q39 30 53 33T81 41T97 52Q104 72 104 143V521Q104 582 97 603Q95 611 83 616T55 625T29 628Q25 628 25 643Q25 657 29 661Q62 659 95 658T162 656Q184 656 223 657T317
661Q428 664 485 664Q487 649 491 628T501 581L514 522Q509 517 493 517Q482 517 479 524Q446 613 351 613H299Q224 613 223 600Q217 572 217 519V362Q217 356 261 356H317Q374 356 386 361Q397 366 403 396Q406 409 409 421Q410 428 425 428Q439 428 444 423V234Q440
230 425 230Q412 230 409 238Q405 252 402 261T397 278Q392 289 391 290T381 298Q367 306 289 306Q217 306 217 298V143Q217 88 226 62Q230 49 294 49H331Q410 49 450 70Q466 78 486 105T517 166Q519 172 531 172Q553 172 559 166L527 77Q521 61 514 37T505 -3Q465
-3 340 0Q277 2 233 2T163 1L30 -3Z" />
<glyph unicode="F" glyph-name="F" horiz-adv-x="538" d="M30 -3Q27 0 27 13Q27 30 30 30Q39 30 53 33T81 41T97 52Q104 72 104 143V521Q104 582 97 603Q95 611 83 616T55 625T29 628Q25 628 25 643Q25 657 29 661Q61 659 94 658T161 657Q208 656 320 660Q376
662 417 663T484 664Q486 649 490 628T500 581L513 522Q508 517 492 517Q481 517 478 524Q445 613 350 613H298Q223 613 222 600Q220 588 219 568T217 519V362Q217 356 261 356H316Q373 356 385 361Q396 366 402 396Q405 409 408 421Q409 428 424 428Q438 428 443
423V234Q439 230 424 230Q411 230 408 238Q404 252 401 261T396 278Q391 289 390 290T380 298Q366 306 288 306Q217 306 217 298V141Q217 88 228 58Q231 52 247 46T281 35T307 30Q312 30 312 13Q312 2 309 -3Q189 3 167 3Q137 3 103 2T50 -2L30 -3Z" />
<glyph unicode="G" glyph-name="G" horiz-adv-x="702" d="M342 -8Q276 -8 219 18T118 90T50 195T25 322Q25 393 50 455T121 565T225 640T354 667Q444 667 586 630Q589 629 595 564Q599 514 601 494T580 474Q566 474 558 480Q555 494 550 508T530 544Q505 580 461
599T358 618Q293 618 246 583T175 485T150 340Q150 269 176 202Q193 158 223 122T295 64T386 42Q450 42 482 61Q492 68 492 84L491 156V163Q491 224 484 244Q482 253 469 258T440 266T412 269Q408 269 408 284Q408 298 412 302Q424 302 473 299Q523 296 552 296L673
302Q676 293 676 285Q676 268 672 268Q666 268 646 262T616 252Q603 245 603 179L604 137V114Q604 98 609 83Q614 68 614 68Q614 54 592 44Q553 27 533 19Q514 12 461 2T342 -8Z" />
<glyph unicode="H" glyph-name="H" horiz-adv-x="708" d="M30 -3Q26 1 26 11Q26 30 30 30Q38 30 53 33T81 41T96 52Q100 68 102 89T104 136V522Q104 580 96 606Q94 612 82 617T55 625T32 629Q28 629 28 644Q28 660 30 662L86 659Q136 656 163 656L291 662Q294
653 294 646Q294 629 290 629Q284 629 269 625T241 616T225 606Q221 590 219 569T217 518V372L219 369Q268 368 302 368T355 367Q376 367 409 367T487 369Q489 371 489 373V522Q489 580 481 606Q479 612 467 617T440 625T417 629Q413 629 413 644Q413 660 415 662L471
659Q521 656 548 656L676 662Q679 653 679 646Q679 629 675 629Q669 629 654 625T626 616T610 606Q606 590 604 569T602 518V142Q602 87 611 52Q613 48 625 43T652 34T673 30Q677 30 677 11Q677 5 675 -3L548 3Q513 3 476 1T415 -3Q411 1 411 11Q411 30 415 30Q423
30 438 33T466 41T481 52Q485 68 487 89T489 136V308L487 312Q440 313 407 313T355 314Q217 313 217 309V142Q217 87 226 52Q228 48 240 43T267 34T288 30Q292 30 292 11Q292 5 290 -3L163 3Q128 3 91 1T30 -3Z" />
<glyph unicode="I" glyph-name="I" horiz-adv-x="323" d="M30 -3Q26 1 26 11Q26 30 30 30Q38 30 53 33T81 41T96 52Q100 68 102 89T104 136V522Q104 580 96 606Q94 612 82 617T55 625T32 629Q28 629 28 644Q28 660 30 662L86 659Q111 658 130 657T163 656L291
662Q294 653 294 646Q294 629 290 629Q284 629 269 625T241 616T225 606Q221 590 219 569T217 518V142Q217 87 226 52Q228 48 240 43T267 34T288 30Q292 30 292 11Q292 5 290 -3L163 3Q128 5 91 2T30 -3Z" />
<glyph unicode="J" glyph-name="J" horiz-adv-x="363" d="M-12 -222Q-27 -222 -45 -216T-67 -206Q-80 -190 -80 -161Q-80 -138 -61 -122T-17 -106Q3 -106 29 -132Q53 -158 67 -158Q103 -158 126 -90Q147 -21 147 106V524Q147 552 146 572T140 606Q138 614 126
619T98 626T72 629Q68 629 68 644Q68 660 70 662Q112 659 145 657T207 656L334 662Q337 653 337 646Q337 629 333 629Q327 629 312 625T284 616T269 606Q265 590 263 569T261 518V114Q261 16 227 -60T132 -179T-12 -222Z" />
<glyph unicode="K" glyph-name="K" horiz-adv-x="706" d="M30 -3Q26 1 26 11Q26 30 30 30Q38 30 53 33T81 41T96 52Q100 68 102 89T104 136V522Q104 580 96 606Q94 612 82 617T55 625T32 629Q28 629 28 644Q28 660 30 662L86 659Q136 656 163 656L291 662Q294
653 294 646Q294 629 290 629Q284 629 269 625T241 616T225 606Q221 590 219 569T217 518V357Q217 352 222 350H231Q252 350 283 384Q363 470 459 584Q475 603 475 614Q475 621 465 624T440 630T416 632Q412 632 411 643T412 662Q523 656 533 656Q564 656 595 658T646
662Q648 658 648 645T644 632Q575 625 543 590L357 378Q346 364 359 350L593 72Q605 58 623 49T659 35T686 30Q691 30 691 11Q691 3 688 -3Q568 3 551 3Q535 3 516 3T475 1L412 -3Q408 1 408 16Q408 30 412 30Q423 30 440 37T457 52Q457 61 432 94T362 180T255
296Q251 300 233 300Q217 300 217 288V140Q217 87 226 52Q228 48 240 43T267 34T288 30Q292 30 292 11Q292 5 290 -3L163 3Q128 3 91 1T30 -3Z" />
<glyph unicode="L" glyph-name="L" horiz-adv-x="584" d="M30 -3Q27 0 27 13Q27 30 30 30Q39 30 53 33T81 41T97 52Q104 72 104 143V521Q104 580 96 606Q94 612 82 617T55 625T32 629Q28 629 28 644Q28 660 30 662L86 659Q111 658 130 657T163 656L291 662Q294
653 294 646Q294 629 290 629Q284 629 269 625T241 616T225 606Q221 590 219 569T217 518V142Q217 94 226 62Q230 49 294 49H331Q410 49 450 70Q466 78 486 105T517 166Q519 172 531 172Q553 172 559 166L527 77Q521 61 514 37T505 -3Q465 -3 340 0Q277 2 233 2T163
1L30 -3Z" />
<glyph unicode="M" glyph-name="M" horiz-adv-x="913" d="M30 -3Q26 1 26 13Q26 30 30 30Q41 30 60 34T98 47T119 66Q129 85 130 133Q133 246 136 340T141 497T144 580Q144 599 141 608Q139 614 124 619T91 627T64 630Q60 630 60 647Q60 658 64 662L116 659Q152
656 178 656L276 662Q290 620 319 552T387 394T470 196Q470 194 473 194Q476 194 476 197Q520 303 555 389T616 544L652 660Q682 657 734 657Q754 657 783 658T853 662Q856 658 856 646Q856 629 852 629H850Q823 629 801 613Q786 603 788 559Q790 515 793 412T802
146Q804 90 818 54Q821 48 833 43T860 34T880 30Q884 30 884 12Q884 5 882 -3L759 3Q724 3 687 1T626 -3Q622 1 622 12Q622 30 626 30Q637 30 658 36T686 51Q696 64 696 86V142L686 446Q681 508 674 508Q671 508 669 502L478 36Q461 -2 440 -2Q438 -2 436 -2T430
0L206 538Q202 414 199 302T190 92Q190 70 193 61Q197 54 215 47T252 35T280 30Q284 30 284 12Q284 5 282 -3L156 3Q129 3 85 0Q40 -3 30 -3Z" />
<glyph unicode="N" glyph-name="N" horiz-adv-x="753" d="M613 -5Q598 -5 581 18L183 546V141Q183 83 191 59Q195 51 211 45T246 34T273 30Q276 30 276 16T275 -3L150 3Q132 3 108 2T62 -1T31 -3Q27 1 27 14Q27 30 31 30Q43 30 60 33T92 43T113 60Q123 80 123
144V536Q123 589 112 609Q110 614 94 618T61 625T33 628Q29 628 29 643T32 662Q85 660 114 659T151 657Q168 657 190 658T241 662Q263 622 312 555T428 401T569 210Q570 216 570 226T571 251V523Q571 577 561 603Q558 611 543 617T511 626T483 629Q479 629 479
643T481 662Q534 658 565 657T607 655Q620 655 637 656T674 659Q715 662 725 662Q727 656 727 646Q727 629 723 629Q714 629 697 626T664 616T642 601Q631 573 631 518V139Q631 121 632 86T635 -1Q631 -5 613 -5Z" />
<glyph unicode="O" glyph-name="O" horiz-adv-x="693" d="M119 89Q25 187 25 328Q25 398 50 459T119 567T221 640T345 667Q411 667 469 641T571 568T641 460T666 328Q666 187 572 89Q507 21 426 -1T265 -2T119 89ZM361 40Q418 40 457 76T518 174T539 309Q539 385
519 454Q506 499 480 536T416 596T330 618Q273 618 234 582T174 485T153 350Q153 275 174 207Q188 162 214 124T277 63T361 40Z" />
<glyph unicode="P" glyph-name="P" horiz-adv-x="546" d="M30 -4Q27 1 27 14Q27 30 30 30Q39 30 54 33T82 41T98 52Q104 70 104 143V521Q104 578 98 603Q96 609 83 614T54 624T30 628Q26 628 26 643Q26 658 30 661Q135 658 163 658Q177 658 194 658T230 660L298
661Q328 661 357 656T417 636Q465 614 492 574T520 478Q520 431 496 386Q471 341 422 310T310 278Q289 278 268 285T239 304Q232 311 233 323T238 336Q259 326 294 326Q342 326 370 365T398 465Q398 532 371 571T288 610Q245 610 230 603Q218 597 218 499V142Q218
84 226 57Q228 49 243 43T277 34T304 30Q308 30 308 13Q308 4 306 -4Q197 2 164 2Q137 2 104 1T50 -2L30 -4Z" />
<glyph unicode="Q" glyph-name="Q" horiz-adv-x="744" d="M568 -140Q531 -140 489 -123T413 -83Q380 -60 336 -36T258 0Q222 11 184 37T109 103Q72 143 48 202T24 328Q24 421 67 498Q110 576 183 621T344 667Q431 667 504 622Q578 576 621 498T664 328Q664 261
642 202T584 102Q550 62 512 37T440 5Q481 -15 508 -31T552 -55Q570 -64 600 -71T667 -79Q693 -79 712 -75T739 -70Q751 -70 751 -90V-95Q667 -140 568 -140ZM360 42Q417 42 457 78T518 175T539 309Q539 425 491 515Q466 560 424 587T328 614Q271 614 231 578T170
483T149 350Q149 276 170 208Q184 163 211 125T276 65T360 42Z" />
<glyph unicode="R" glyph-name="R" horiz-adv-x="685" d="M633 -6Q529 -6 469 42Q434 69 405 105T353 175T317 232Q299 258 283 279T234 300Q218 300 218 283V142Q218 84 226 57Q228 49 243 43T277 34T304 30Q308 30 308 13Q308 4 306 -4Q197 2 164 2Q137 2 104
1T50 -2L30 -4Q27 1 27 14Q27 30 30 30Q39 30 54 33T82 41T98 52Q104 70 104 143V521Q104 578 98 603Q96 609 83 614T54 624T30 628Q26 628 26 643Q26 658 30 661Q137 658 163 658Q212 659 239 659T280 659T304 660Q357 660 408 641T492 583T526 484Q526 448 510
414T467 354T406 314Q398 311 402 304Q430 254 458 212T514 134Q549 91 589 61T664 30Q668 25 668 14Q668 3 664 -4Q658 -5 651 -5T633 -6ZM282 348H308Q345 348 374 383T404 474Q404 610 288 610Q245 610 230 603Q218 598 218 499V384Q218 362 235 355T282 348Z"
/>
<glyph unicode="S" glyph-name="S" horiz-adv-x="492" d="M243 -10Q181 -10 59 18Q53 42 48 75T39 139T35 180Q37 188 51 188Q77 188 80 180Q84 162 94 141T122 95Q139 70 168 55T235 39Q282 39 313 67T344 151Q344 191 321 213T270 255Q263 259 248 268T219 286T196
300Q177 312 165 320T141 336T114 358Q82 384 65 417T47 490Q47 540 76 580T153 644T252 668Q280 668 301 665Q322 662 333 659T360 652T411 640Q423 573 423 486Q422 477 411 477Q384 477 382 486Q378 517 360 547T314 599T249 620Q203 620 179 594T154 524Q154
496 164 481T190 447Q201 435 226 417T282 380T342 343Q397 311 427 274T457 174Q457 121 427 79T349 14T243 -10Z" />
<glyph unicode="T" glyph-name="T" horiz-adv-x="664" d="M200 -4Q196 0 196 12Q196 30 200 30Q208 30 223 33T251 41T266 52Q274 81 274 135V497Q274 581 265 594Q257 611 170 611Q121 611 98 592T60 518Q59 512 50 512Q32 512 24 520L43 672Q65 667 82 665T112
662Q202 660 256 659T341 657T387 656T411 656T434 657T474 659T551 662Q564 662 581 664T620 672L639 519Q632 512 612 512Q604 512 602 517Q588 572 565 591T493 611Q401 611 396 594Q387 566 387 500V139Q387 85 396 52Q397 48 409 43T437 34T458 30Q462 30
462 12Q462 7 462 3T460 -4Q423 -1 392 1T333 3Q315 3 287 2T233 -1T200 -4Z" />
<glyph unicode="U" glyph-name="U" horiz-adv-x="733" d="M358 -2Q238 -2 169 70T100 304V522Q100 585 92 606Q90 612 78 617T51 625T28 629Q24 629 24 644Q24 659 27 662L160 656Q179 656 288 662Q289 658 289 654T290 646Q290 629 286 629Q280 629 265 626T236
617T222 606Q218 591 216 569T214 518V288Q214 185 258 124T382 62Q459 62 505 112T552 280V524Q552 585 542 604Q538 610 523 616T490 626T464 630Q460 630 460 644T462 662Q516 658 547 657T588 655Q601 655 617 656T655 659Q696 662 706 662Q707 658 707 655T708
646Q708 630 704 630Q695 630 678 627T645 617T623 602Q612 575 612 519V284Q612 128 539 61Q504 28 460 13T358 -2Z" />
<glyph unicode="V" glyph-name="V" horiz-adv-x="715" d="M348 -10Q338 -10 332 0L126 512Q104 570 88 601Q81 614 57 621T19 629Q15 629 15 644Q15 658 18 662L73 659Q121 656 148 656Q162 656 285 662Q288 658 288 644Q288 629 284 629Q264 629 243 620T222
594Q222 574 298 389Q310 358 318 340Q336 293 353 255T381 195T392 178L538 523Q558 571 558 592Q558 610 535 619T487 629Q483 629 483 643T486 662Q495 662 534 659Q573 656 597 656Q623 656 657 659L706 662Q708 656 708 647Q708 630 706 630Q693 630 672 623T638
601Q624 579 595 513L387 26Q372 -10 348 -10Z" />
<glyph unicode="W" glyph-name="W" horiz-adv-x="1078" d="M394 -10Q388 -10 384 -6L119 520Q105 548 92 569T67 607Q59 617 40 623T8 629Q4 629 4 645Q4 659 7 662L141 656Q153 656 262 662Q263 656 263 643T260 629Q244 629 228 622T212 598Q212 580 230 545L426
158Q429 153 433 155T440 162L513 304L406 520Q377 580 355 605Q346 615 329 622T297 629Q293 629 293 646Q293 659 296 662L428 656L546 662Q548 656 548 643T546 629Q529 629 514 621T498 598Q498 582 516 546L577 421L636 542Q654 578 654 597Q654 609 643 616T615
627T587 630Q583 630 583 644Q583 658 586 662Q675 656 696 656Q724 656 754 658T811 662Q813 654 813 644Q813 632 810 630Q802 630 788 626T760 615T739 600Q716 574 682 506L609 358L706 160Q712 150 719 165Q729 188 752 239T813 368L894 540Q912 578 912 596Q912
608 901 615T874 626T848 630Q844 630 844 644T847 662Q898 659 929 658T982 656T1023 658T1070 662Q1071 658 1071 654T1072 642Q1072 630 1068 630Q1056 630 1034 622T1000 602Q987 586 972 563T942 507L713 22Q706 6 695 -2T676 -10Q670 -10 666 -6L544 240L430
22Q422 6 412 -2T394 -10Z" />
<glyph unicode="X" glyph-name="X" horiz-adv-x="752" d="M28 -4Q24 4 24 10Q24 30 28 30Q38 30 55 33T90 43T116 60L320 333L183 542Q147 599 123 614Q99 629 68 629Q65 629 65 644Q65 658 68 662Q107 660 139 658T202 656Q229 656 338 662Q339 659 339 644Q339
629 336 629Q319 629 299 623T279 602Q279 592 289 576L402 405L435 447L474 496Q506 537 523 562T540 598Q540 609 518 619T468 629Q464 629 464 643T467 662Q569 656 592 656Q606 656 715 662Q717 656 717 644Q717 629 714 629Q704 629 685 626T648 615T621 595L433
357L624 71Q640 50 667 40T716 30Q720 30 720 10Q720 4 718 -4Q609 2 592 2Q551 2 509 0T440 -4Q436 0 436 15T441 30Q450 30 463 33T487 43T498 58Q498 64 494 69L354 282Q202 79 202 60Q202 49 223 40Q242 30 273 30Q278 30 278 11Q278 2 276 -4Q179 2 153 2Q138
2 28 -4Z" />
<glyph unicode="Y" glyph-name="Y" horiz-adv-x="657" d="M200 -4Q196 0 196 12Q196 28 199 28Q207 28 222 31T249 41T264 52Q272 82 272 140V288Q272 293 266 308L243 352Q236 366 229 379T215 403L136 543Q121 569 108 587T84 612Q74 619 55 624T26 630Q23 630
23 640T24 654Q36 655 69 655T156 656Q174 656 294 662Q296 658 296 644T292 630Q276 630 256 623T236 602Q236 593 245 576L351 382Q357 377 361 384Q382 416 404 450T444 516T473 570T484 602Q484 613 466 622Q445 630 417 630Q413 630 413 644Q413 658 416 662Q517
656 536 656Q564 656 593 658T646 662Q647 658 647 654T648 646Q648 630 644 630Q629 630 603 621T564 597Q552 580 531 547T484 473T437 394T400 330T385 298V142Q385 113 387 91T393 52Q395 48 407 42T434 32T454 28Q458 28 458 12Q458 7 458 3T456 -4Q420 -1
390 1T331 3Q313 3 285 2T233 -1T200 -4Z" />
<glyph unicode="Z" glyph-name="Z" horiz-adv-x="622" d="M40 0Q32 10 32 26Q32 39 36 43L412 604H220Q184 603 160 596T121 571Q106 552 98 535T80 484Q78 479 68 479Q42 479 36 486Q49 548 56 593T67 664Q72 663 93 662T140 659T190 657T224 656H333Q374 656
429 658T554 666Q557 665 560 653T564 633Q563 630 471 491L194 79Q188 69 188 64Q188 54 202 54H394Q511 54 555 173Q557 178 568 178Q588 178 596 170Q574 103 562 60T547 0H40Z" />
<glyph unicode="[" glyph-name="bracketleft" horiz-adv-x="275" d="M245 -124Q131 -106 53 -106Q35 -106 35 -83V732Q35 756 53 756Q151 756 248 771Q254 771 254 758Q254 737 240 729Q227 722 194 715T133 708Q126 708 126 699V-50Q126 -58 133 -58Q184 -58
241 -83Q251 -87 251 -106Q251 -124 245 -124Z" />
<glyph unicode="\" glyph-name="backslash" horiz-adv-x="409" d="M359 -39L335 -37L21 755Q29 761 43 761Q87 761 97 739L383 13Q387 8 387 -6Q387 -23 377 -31T359 -39Z" />
<glyph unicode="]" glyph-name="bracketright" horiz-adv-x="276" d="M30 -124Q24 -124 24 -106Q24 -88 35 -83Q92 -58 142 -58Q150 -58 150 -50V699Q150 708 142 708Q114 708 82 715T36 729Q22 737 22 758Q22 771 28 771Q126 756 222 756Q241 756 241 732V-83Q241
-106 222 -106Q144 -106 30 -124Z" />
<glyph unicode="^" glyph-name="asciicircum" horiz-adv-x="388" d="M69 472Q65 472 62 479T57 492L56 499Q61 513 86 538T142 598T193 677Q196 683 196 686T203 690Q214 690 224 674T248 635T278 588Q307 551 332 528T360 500Q360 495 356 484T347 472Q339 472
315 490T261 535T207 590Q187 564 158 537T103 491T69 472Z" />
<glyph unicode="_" glyph-name="underscore" horiz-adv-x="585" d="M68 -43Q61 -43 61 -33Q65 13 76 13H525Q529 13 529 8Q529 4 527 -7T519 -37Q517 -43 515 -43T508 -43H68Z" />
<glyph unicode="`" glyph-name="grave" horiz-adv-x="247" d="M200 524Q195 524 178 534T138 562T94 598T58 633T44 660Q44 668 56 677T88 687Q113 687 122 678Q165 628 190 588T215 540Q215 535 210 530T200 524Z" />
<glyph unicode="a" glyph-name="a" horiz-adv-x="452" d="M141 -7Q91 -7 60 20T28 96Q28 129 49 156T110 202Q124 209 135 213T157 222Q192 233 215 240T249 250Q258 255 258 266V321Q258 356 242 376T199 396Q169 396 152 378T135 325Q135 305 120 296T86 286Q49
286 34 310Q34 334 52 357T99 400T165 430T237 442Q299 442 330 410T361 298V101Q361 60 394 60Q409 60 428 73Q434 72 434 62Q434 43 428 32Q413 20 388 7T340 -6Q317 -6 295 11T266 48Q258 41 254 38T241 28Q220 14 195 4T141 -7ZM192 58Q219 58 238 72T258 104V206L194
184Q171 174 153 160T135 120Q135 88 151 73T192 58Z" />
<glyph unicode="b" glyph-name="b" horiz-adv-x="525" d="M264 -7Q233 -7 213 -3T177 4T144 8Q131 8 119 1T98 -6Q95 -6 84 0T72 10Q72 20 77 54T82 132V540Q82 578 76 608Q72 624 24 624H15Q9 624 9 640Q9 656 15 656Q46 659 74 664T121 674Q147 682 163 688T181
694H183Q187 694 191 689T196 678Q191 659 188 636T185 584V423Q185 414 186 413T191 412Q205 422 231 432T282 442Q345 442 394 411Q444 380 469 331T494 230Q494 165 462 111T377 25T264 -7ZM274 41Q326 41 352 88T379 202Q379 288 348 338T260 388Q227 388 206
369T185 324V112Q185 77 211 59T274 41Z" />
<glyph unicode="c" glyph-name="c" horiz-adv-x="435" d="M242 -6Q181 -6 132 24T54 105T25 218Q25 279 52 329T129 411T242 442Q295 442 336 425T396 386Q396 352 385 330T350 307Q331 307 320 317T296 350Q274 396 229 396Q186 396 161 353T135 243Q135 153
172 110T266 66Q292 66 309 70T342 79Q350 82 362 89T384 103T394 110Q396 109 399 104T402 94Q402 75 379 52T319 11T242 -6Z" />
<glyph unicode="d" glyph-name="d" horiz-adv-x="520" d="M336 -6Q330 -6 330 11V28Q330 31 329 32T326 32Q279 -5 222 -5Q168 -5 123 22T49 97T21 204Q21 270 52 324T137 411T252 444Q294 444 325 430Q330 430 330 446V540Q330 578 324 608Q320 624 272 624H264Q258
624 258 640Q258 656 264 656Q294 659 322 664T370 674Q397 682 412 688T430 694H432Q436 694 440 689T444 678Q434 641 434 584V144Q434 121 436 96T443 64Q448 59 459 56T482 53T498 52Q500 50 500 40Q500 20 494 20Q480 19 459 16T417 10Q377 3 357 -1T336 -6ZM254
50Q288 50 309 67T330 112V322Q330 336 323 353T297 383T243 396Q190 396 163 351T136 230Q136 145 167 98T254 50Z" />
<glyph unicode="e" glyph-name="e" horiz-adv-x="436" d="M238 -6Q180 -6 132 23T54 103T25 215Q25 283 52 334T125 413T232 442Q281 442 316 424T373 378T406 318T417 259Q417 237 410 232T379 226H140Q133 226 133 220Q133 183 146 150Q159 116 190 91T266 66Q292
66 309 70T342 79Q350 82 362 89T384 103T394 110Q396 109 399 104T402 94Q402 83 396 75Q386 57 363 39T307 7T238 -6ZM140 274H302Q311 274 311 289Q311 313 301 337T271 379T225 396Q194 396 174 375T144 327T134 281Q134 274 140 274Z" />
<glyph unicode="f" glyph-name="f" horiz-adv-x="349" d="M32 -4Q25 3 25 16T32 30Q40 30 54 33T80 42T93 52Q102 87 102 134V364Q102 371 96 371H36Q34 371 34 377Q34 388 48 406T80 424H96Q102 424 102 430V440Q102 510 131 568T207 660T312 695Q354 695 381
685T418 659Q422 628 413 604T376 579Q363 579 353 589T332 612T310 635T282 645Q244 645 224 596T204 475V429Q204 428 206 426T210 424H320Q324 424 325 423T326 417Q326 395 314 371H210Q204 371 204 365V142Q204 113 206 91T212 52Q214 48 226 43T252 34T272
30Q275 30 275 16T274 -4Q270 -3 247 -2T196 1T152 3Q136 3 110 2T61 -1T32 -4Z" />
<glyph unicode="g" glyph-name="g" horiz-adv-x="477" d="M206 -222Q158 -222 117 -210T50 -172T24 -112Q24 -83 52 -56T114 -18Q88 -10 66 12T44 65Q44 107 118 154Q99 163 81 183T51 231T39 287Q39 335 63 369T127 421T218 440Q256 440 301 427Q346 414 381
414H438Q440 414 445 401T450 381Q450 367 444 367H379Q375 367 375 364L384 338Q393 313 393 290Q393 251 371 216T309 158T220 136Q202 136 187 137T158 140Q146 135 136 122T126 97Q126 83 144 76T189 67T243 64H254Q354 64 400 38T447 -37Q448 -87 414 -129T325
-196T206 -222ZM218 179Q255 179 272 207T290 278Q290 331 270 364T212 397Q176 397 159 366T142 295Q142 246 162 213T218 179ZM229 -174Q285 -174 320 -148T356 -83Q356 -48 306 -37Q281 -31 250 -29T193 -26Q177 -26 157 -31T121 -50T106 -90Q106 -114 123 -133T169
-163T229 -174Z" />
<glyph unicode="h" glyph-name="h" horiz-adv-x="578" d="M31 -4Q27 0 27 15Q27 30 31 30Q39 30 53 33T80 42T94 52Q101 80 101 124V540Q101 560 100 577T96 608Q92 624 44 624H35Q29 624 29 640Q29 656 35 656Q66 659 94 664T141 674Q167 682 184 688T201 694H203Q207
694 211 689T216 678Q204 639 204 584V382Q204 376 208 376Q209 376 212 379Q233 403 273 422T354 442Q482 442 482 245V142Q482 82 490 52Q491 48 503 43T530 34T551 30Q554 30 554 16T554 -4Q550 -3 526 -2T474 1T432 3Q416 3 390 2T342 -1T312 -4Q309 1 309
15Q309 30 312 30Q320 30 333 33T358 42T372 52Q378 82 378 125V223Q378 306 356 337T284 369Q254 369 229 352T204 314V142Q204 82 212 52Q214 48 226 43T252 34T272 30Q275 30 275 16T274 -4Q269 -3 246 -2T196 1T154 3Q138 3 111 2T61 -1T31 -4Z" />
<glyph unicode="i" glyph-name="i" horiz-adv-x="283" d="M283 -3Q279 1 279 16Q279 30 283 30Q291 30 304 34T328 44T341 54Q345 71 347 90T349 128V289Q349 336 333 353Q324 364 311 368T287 373T276 376Q276 406 281 406Q313 410 351 417T421 432L453 440Q460
440 460 420Q460 407 457 383T453 334V144Q453 81 460 54Q462 50 473 44T497 34T515 30Q518 30 518 16T517 -3Q486 -1 454 1T401 3Q370 3 338 1T283 -3ZM393 544Q368 544 350 562T332 605Q332 630 350 647T393 665Q418 665 435 648T453 605Q453 580 436 562T393
544Z" />
<glyph unicode="j" glyph-name="j" horiz-adv-x="274" d="M10 -224Q-10 -215 -10 -202Q-10 -197 -8 -195L-2 -191Q8 -185 20 -176T47 -146Q70 -114 83 -59T96 63V289Q96 336 80 353Q71 364 58 367T34 372T23 376Q23 406 28 406Q60 410 101 416T190 437L200 440Q207
440 207 420Q207 414 204 384Q202 368 201 356T200 334V100Q200 -35 156 -111Q111 -189 10 -224ZM144 544Q119 544 101 562T83 605Q83 630 101 647T144 665Q169 665 186 648T204 605Q204 580 187 562T144 544Z" />
<glyph unicode="k" glyph-name="k" horiz-adv-x="596" d="M31 -4Q27 0 27 15Q27 30 31 30Q39 30 53 33T80 42T94 52Q101 80 101 125V540Q101 560 100 577T96 608Q92 624 44 624H35Q29 624 29 640Q29 656 35 656Q66 659 94 664T141 674Q167 682 184 688T201 694H203Q207
694 211 689T216 678Q204 639 204 584V250Q227 256 234 261Q255 280 279 300T315 330Q333 345 344 356T355 378Q355 389 333 392Q310 394 310 395Q307 403 307 413Q307 423 311 424H408Q422 424 448 425T514 428Q521 423 521 409T514 395Q479 395 445 375Q432 367
407 349T354 308T302 260Q382 175 424 125T488 56Q503 44 526 36T560 28Q564 28 564 11Q564 -1 563 -3L446 2Q414 4 381 1T327 -4Q323 0 323 14Q323 28 327 28Q337 28 350 32T363 42Q363 44 362 44L216 207L204 204V142Q204 79 212 52Q214 48 226 43T253 34T274
30Q277 30 277 16T276 -4Q272 -3 248 -2T197 1T154 3Q138 3 111 2T61 -1T31 -4Z" />
<glyph unicode="l" glyph-name="l" horiz-adv-x="295" d="M31 -3Q27 1 27 16Q27 30 31 30Q39 30 52 34T76 44T89 54Q93 71 95 90T97 128V544Q97 582 91 612Q87 628 41 628H31Q25 628 25 640Q25 656 31 656Q86 661 130 673T190 691L197 694H199Q203 694 207 688T213
678Q201 641 201 584V144Q201 81 208 54Q210 50 221 44T245 34T263 30Q266 30 266 16T265 -3Q234 -1 202 1T149 3Q118 3 86 1T31 -3Z" />
<glyph unicode="m" glyph-name="m" horiz-adv-x="844" d="M32 -4Q28 0 28 15Q28 30 32 30Q40 30 54 33T81 42T95 52Q102 80 102 125V288Q102 336 86 352Q75 364 62 368T39 373T29 376Q29 405 35 406Q58 408 97 415T182 433Q202 438 203 438Q208 438 211 431T213
420Q211 406 210 397T209 384Q209 379 211 379Q213 379 216 382Q240 406 277 424T354 442Q392 442 419 423T459 372Q488 402 532 422T626 442Q674 442 702 416T742 345T755 247V142Q755 79 762 52Q764 48 776 43T803 34T823 30Q826 30 826 16T825 -4Q821 -3 798
-2T747 1T704 3Q688 3 662 2T612 -1T582 -4Q579 1 579 15Q579 30 582 30Q590 30 604 33T630 42T644 52Q651 80 651 122V224Q651 369 558 369Q525 369 504 353T478 322Q478 309 479 300T480 262V138Q480 110 481 88T487 52Q489 48 501 43T528 34T548 30Q551 30 551
16T550 -4Q546 -3 523 -2T472 1T429 3Q413 3 387 2T337 -1T307 -4Q304 1 304 15Q304 30 307 30Q315 30 329 33T355 42T369 52Q376 80 376 125V221Q376 299 353 334T285 369Q255 369 230 352T205 314V142Q205 82 213 52Q215 48 227 43T252 34T272 30Q276 30 276
16T275 -4Q270 -3 247 -2T197 1T155 3Q139 3 112 2T61 -1T32 -4Z" />
<glyph unicode="n" glyph-name="n" horiz-adv-x="584" d="M32 -4Q28 0 28 15Q28 30 32 30Q40 30 54 33T81 42T95 52Q102 80 102 125V288Q102 333 86 352Q77 363 64 366T40 371T30 376Q30 404 35 406Q58 408 102 416T186 434Q188 435 195 436T204 438Q208 438 211
431T214 420Q212 406 211 397T210 384Q210 379 212 379Q213 379 216 382Q240 406 277 424T354 442Q483 442 483 237V142Q483 79 490 52Q492 48 504 43T531 34T552 30Q555 30 555 16T554 -4Q550 -3 527 -2T476 1T432 3Q416 3 391 2T343 -1T314 -4Q310 0 310 15Q310
30 314 30Q322 30 335 33T359 42T372 52Q376 67 378 85T380 125V220Q380 303 358 336T286 369Q254 369 230 352T206 314V142Q206 79 213 52Q215 48 227 43T253 34T272 30Q276 30 276 16T275 -4Q270 -3 247 -2T197 1T155 3Q139 3 112 2T62 -1T32 -4Z" />
<glyph unicode="o" glyph-name="o" horiz-adv-x="507" d="M254 -7Q191 -7 140 23T58 105T27 218Q27 281 57 331T138 412T253 442Q316 442 367 412T449 331T480 218Q480 156 450 105T369 24T254 -7ZM264 40Q296 40 318 61T352 117T364 194Q364 248 350 293T308
367T240 395Q209 395 187 374T153 318T141 241Q141 187 155 142T198 68T264 40Z" />
<glyph unicode="p" glyph-name="p" horiz-adv-x="540" d="M28 -222Q25 -217 25 -204Q25 -189 28 -189Q36 -189 50 -186T77 -177T92 -166Q98 -137 98 -94V288Q98 337 82 353Q73 364 60 368T37 373T26 376Q26 405 32 406Q73 410 110 417T181 434L200 439Q204 439
204 422Q204 417 204 414T202 406Q218 418 246 429T300 441Q361 441 409 412T484 335T512 230Q512 162 480 108T395 23T277 -8Q250 -8 206 6Q202 6 202 -8V-76Q202 -136 210 -166Q211 -171 223 -176T250 -185T271 -189Q274 -189 274 -203T274 -222L221 -219Q175
-216 152 -216Q127 -216 82 -219L28 -222ZM287 40Q333 40 364 82T396 200Q396 281 364 334T276 388Q243 388 223 369T202 318V112Q202 79 229 60T287 40Z" />
<glyph unicode="q" glyph-name="q" horiz-adv-x="517" d="M270 -222Q266 -219 266 -205Q266 -190 270 -190Q278 -190 292 -186T319 -177T333 -167Q340 -139 340 -94V12Q340 24 334 24Q285 -6 240 -6Q184 -6 136 23T60 101T31 208Q31 272 63 325T148 411T264 444Q303
444 337 437T384 429Q393 429 408 435T428 442Q432 442 444 436T456 426Q456 421 450 384T444 300V-83Q444 -140 451 -167Q453 -171 465 -176T492 -186T512 -190Q516 -190 516 -204T515 -222L462 -219Q416 -216 393 -216Q369 -216 324 -219L270 -222ZM268 50Q294
50 317 65T340 110V320Q340 350 319 373T252 396Q212 396 189 372T156 310T146 235Q146 153 177 102T268 50Z" />
<glyph unicode="r" glyph-name="r" horiz-adv-x="430" d="M32 -4Q28 0 28 15Q28 30 32 30Q40 30 54 33T81 42T95 52Q102 80 102 125V288Q102 336 86 352Q77 363 64 367T41 373T30 376Q30 404 35 406Q64 408 98 415T179 432Q194 435 198 436T204 438Q208 438 211
432T214 420Q208 378 208 372Q226 399 257 420T320 442Q375 442 402 409Q402 324 354 324Q337 324 315 344Q293 364 272 364Q251 364 236 349T214 312T206 267V142Q206 79 213 52Q215 48 227 43T253 34T273 30Q276 30 276 16T276 -4Q271 -3 248 -2T198 1T155 3Q139
3 112 2T62 -1T32 -4Z" />
<glyph unicode="s" glyph-name="s" horiz-adv-x="378" d="M172 -10Q109 -10 43 18Q40 30 37 52T31 96T28 131Q35 136 42 136Q64 136 66 128Q74 86 105 61T174 35Q202 35 220 49T238 93Q238 114 222 131T192 156L126 191Q80 215 55 244T30 316Q30 357 52 385T111
428T190 443Q244 443 306 426Q311 404 313 376T317 314Q317 306 304 306Q282 306 280 314Q273 349 251 373T190 398Q161 398 145 385T128 348Q128 322 148 304T202 269Q228 256 252 241T299 208Q338 177 338 126Q338 84 316 54T256 7T172 -10Z" />
<glyph unicode="t" glyph-name="t" horiz-adv-x="350" d="M210 -7Q158 -7 122 26T85 130V372H24Q17 372 17 398Q17 406 18 407Q38 416 57 429T95 460Q124 489 142 510T160 532Q165 532 170 532T179 530Q188 527 188 524V426H261Q284 426 296 426T310 425Q318 425
318 416Q318 391 308 372H188V131Q188 91 205 70T252 49Q273 49 291 57T311 66Q315 67 320 57T324 44Q320 35 302 23T259 2T210 -7Z" />
<glyph unicode="u" glyph-name="u" horiz-adv-x="555" d="M217 -6Q172 -6 144 21T103 90T90 176V288Q90 336 74 352Q65 363 52 367T28 373T17 376Q17 404 22 406Q46 408 76 413T132 423T168 432Q176 434 183 436T191 438Q196 438 198 431T201 420Q192 353 192
332V212Q192 134 214 100T285 66Q317 66 339 85T361 123V288Q361 336 345 352Q336 363 323 367T299 372T288 376Q288 405 294 406Q313 408 342 413T401 424T454 436L462 438Q467 438 470 431T472 420Q468 386 466 365T464 334V136Q464 111 466 93T472 66Q476 58
488 56T511 53T526 52Q530 51 530 43Q530 39 528 30T522 20Q500 20 457 12T367 -6Q360 -6 360 10V54Q360 59 357 59Q334 34 296 14T217 -6Z" />
<glyph unicode="v" glyph-name="v" horiz-adv-x="560" d="M266 -11Q257 -11 254 -5Q227 56 209 97T177 170T151 229T122 292T83 378Q71 406 18 406Q14 406 14 422Q14 434 18 438Q46 438 77 435T140 432Q170 432 201 435T260 438Q263 434 263 420T258 406Q250 406
236 403T211 396T200 384Q200 378 202 374L301 144L391 342Q402 366 396 379Q381 406 326 406Q323 406 323 420Q323 434 326 438Q355 437 384 435T432 432Q450 432 479 434T539 438Q542 434 542 422Q542 406 536 406Q522 406 497 397T463 368L296 15Q292 7 283
-2T266 -11Z" />
<glyph unicode="w" glyph-name="w" horiz-adv-x="815" d="M262 -11Q252 -11 248 -4L194 123Q173 173 155 214T118 294T76 378Q69 391 50 398T18 405Q14 405 14 421Q14 435 18 438Q29 438 69 435Q110 432 132 432Q155 432 200 435L252 438Q254 434 254 424T251
406Q243 406 230 403T206 394T195 378Q195 375 295 148L321 212Q324 221 332 240T349 282T364 322T371 344Q371 357 366 371T345 395T300 406Q296 406 296 421Q296 435 300 438Q311 438 350 435Q388 432 412 432Q434 432 477 435L528 438Q530 434 530 420T526 405Q475
405 475 370Q475 349 569 148Q590 203 609 248T641 325T654 366Q654 382 642 390T613 402T582 405H578Q574 405 574 420T576 438Q589 438 629 435Q670 432 693 432Q714 432 747 435Q779 438 794 438Q795 434 795 430T796 421Q796 406 792 406Q784 406 769 401T738
385T718 363L570 10Q566 2 557 -4T537 -11Q527 -11 524 -4L402 272L295 11Q293 5 284 -3T262 -11Z" />
<glyph unicode="x" glyph-name="x" horiz-adv-x="566" d="M32 -4Q31 0 31 4T30 13Q30 30 34 30Q99 41 121 68L221 190Q230 202 230 205Q230 209 227 213L112 369Q101 384 77 394T36 405Q32 405 32 422Q32 433 36 438L154 432L274 438Q276 432 276 424Q276 406
272 406Q259 406 245 401T230 385Q230 381 235 373L298 284Q327 325 345 349T364 386Q364 396 351 400T324 404T306 406Q302 407 302 422Q302 434 306 438L422 432L526 438Q527 434 527 431T528 422Q528 406 526 406Q458 398 438 374L339 258Q332 251 331 248T330
241Q330 238 334 232L447 77Q477 36 530 28Q533 28 533 11Q533 1 529 -4Q504 -2 487 -1T454 2T416 3Q380 3 352 1T292 -4Q291 -1 291 3T290 13Q290 30 293 30Q307 30 322 37T337 53Q337 56 335 59T330 67L263 160L200 72Q193 64 193 54Q193 42 208 38Q222 34 236
32T252 30Q255 30 255 13Q255 0 251 -4Q226 -2 210 -1T179 2T142 3Q111 3 86 1T32 -4Z" />
<glyph unicode="y" glyph-name="y" horiz-adv-x="512" d="M101 -222Q75 -222 61 -208T47 -176Q47 -150 66 -137Q170 -137 203 -55L230 13L81 360Q71 383 52 394T10 406Q6 406 6 420Q6 437 9 438L63 435Q110 432 134 432Q157 432 197 435Q238 438 248 438Q249 434
249 430T250 420Q250 406 246 406Q240 406 227 403T203 394T192 382V376Q192 368 215 311T285 148L324 247L360 339Q366 356 366 370Q366 383 350 394T302 406Q298 406 298 421Q298 434 302 438Q314 438 351 435Q389 432 412 432Q433 432 464 435Q494 438 508 438Q512
433 512 422Q512 406 508 406Q499 406 483 402T453 389T433 366L250 -76Q190 -222 101 -222Z" />
<glyph unicode="z" glyph-name="z" horiz-adv-x="431" d="M46 0Q26 12 26 23Q26 26 27 27L258 376L152 378Q132 379 118 370T94 349Q86 339 79 325T71 306Q68 300 46 300Q35 300 35 302Q35 304 36 317T42 354Q50 401 51 430Q110 424 146 424H268Q298 424 329 426T394
432Q396 426 396 408L166 68Q158 57 158 54Q158 47 170 47H267Q342 47 367 125Q370 135 385 135Q399 135 404 127L386 0H46Z" />
<glyph unicode="{" glyph-name="braceleft" horiz-adv-x="290" d="M264 -125Q220 -125 178 -101T109 -35T82 56Q82 88 98 140Q114 192 114 219Q114 241 109 247T93 266Q79 282 65 287T39 292T26 292Q22 299 22 310Q22 321 26 328Q40 332 51 335T70 342Q86 348
100 364T114 406Q114 430 97 487Q80 544 80 574Q80 628 106 667T175 728T264 750Q268 750 268 740Q268 721 260 719Q241 718 220 704T183 666T168 613Q168 579 185 525Q202 469 202 428Q202 397 189 370T158 325T120 308Q140 308 158 292T189 249T202 192Q202 150
185 101Q168 52 168 18Q168 -11 183 -36T220 -76T260 -94Q268 -96 268 -116Q268 -125 264 -125Z" />
<glyph unicode="|" glyph-name="bar" horiz-adv-x="145" d="M35 -115V757Q33 763 40 765Q62 772 102 772Q107 772 108 771Q110 769 110 768V766L111 -106Q111 -115 100 -120T73 -127T47 -126T35 -115Z" />
<glyph unicode="}" glyph-name="braceright" horiz-adv-x="289" d="M25 -125Q21 -125 21 -116Q21 -95 30 -94Q49 -92 70 -77T106 -36T121 18Q121 52 104 101Q87 150 87 192Q87 223 99 249T131 291T170 308Q152 308 133 325T101 369T88 428Q88 469 105 525Q113
551 117 573T121 613Q121 643 106 666T70 703T30 719Q21 721 21 740Q21 750 25 750Q72 750 114 729T183 668T210 574Q210 544 193 487Q176 430 176 406Q176 370 198 354T263 328Q267 321 267 310Q267 298 264 292Q247 286 242 285T235 284T231 283T212 275Q193
267 185 255T176 219Q176 192 192 140Q208 88 208 56Q208 6 181 -35T112 -100T25 -125Z" />
<glyph unicode="~" glyph-name="asciitilde" horiz-adv-x="520" d="M365 248Q319 248 247 274Q175 300 128 300Q111 300 92 292Q80 287 74 283T60 274T37 256Q28 261 28 278Q28 302 52 318Q105 356 158 356Q204 356 276 330Q348 304 394 304Q415 304 426 310T443
318Q446 319 455 326T473 340T484 348Q493 344 493 326Q493 303 470 286Q420 248 365 248Z" />
<glyph unicode="&#xa0;" glyph-name="uni00A0" horiz-adv-x="209" />
<glyph unicode="&#xa1;" glyph-name="exclamdown" horiz-adv-x="179" d="M90 438Q124 438 140 417T157 370Q157 345 141 324T90 303Q57 303 41 324T24 371Q24 396 40 417T90 438ZM95 256Q103 258 107 252T112 235L147 -144Q150 -177 132 -196T88 -216Q65 -216
50 -197T35 -150Q35 -105 41 -43T57 89T71 225Q72 240 78 246T95 256Z" />
<glyph unicode="&#xa2;" glyph-name="cent" horiz-adv-x="463" d="M231 -45Q194 -45 194 -36L200 -1Q130 17 87 75T43 218Q43 278 71 329T149 410T260 441Q266 441 272 441L277 474Q314 474 314 466L309 437Q347 430 375 416T414 384Q414 307 368 307Q353 307
343 317T320 348Q309 366 299 375L249 67Q266 62 285 62Q305 62 324 66T358 77Q375 85 387 97T412 110Q414 110 417 105T420 94Q420 83 414 75Q402 57 379 38T323 6T255 -8Q246 -8 237 -7L231 -45ZM152 244Q152 184 168 144T213 83L264 394Q256 396 246 396Q203
396 178 354T152 244Z" />
<glyph unicode="&#xa3;" glyph-name="sterling" horiz-adv-x="482" d="M72 -8Q60 -7 53 1T46 15Q52 24 62 38T83 65T96 82Q110 115 110 234Q110 247 106 284H53Q48 284 48 298Q48 318 54 327H100Q95 365 93 391T90 431Q90 493 115 539T185 612T286 638Q319 638
347 628T386 599Q386 571 377 549T346 527Q329 527 319 537T300 559T281 582T254 592Q213 592 197 558T180 464Q180 453 182 428T190 363Q193 344 195 327H326Q332 327 332 317Q332 310 328 300T316 284H199Q200 268 200 259Q200 161 156 94Q180 102 218 102Q247
102 299 87Q350 72 365 72Q377 72 386 75T405 89Q423 110 440 142Q446 142 452 136T458 122Q458 114 457 111Q441 61 411 27T340 -8Q306 -8 241 10Q177 28 153 28Q140 28 128 24T105 14Q88 4 80 -2T72 -8Z" />
<glyph unicode="&#xa4;" glyph-name="currency" horiz-adv-x="468" d="M389 99L339 152Q290 120 234 120Q170 120 118 158L65 109Q58 102 43 118T23 155L75 204Q45 249 45 308Q45 372 84 424L33 478Q26 486 42 500T79 520L130 466Q176 497 234 497Q295 497 347
458L402 510Q407 515 422 503T445 464L390 413Q423 364 423 308Q423 246 385 194L435 142Q440 137 428 122T389 99ZM243 158Q283 158 305 196T327 286Q327 332 315 371T280 434T224 458Q185 458 163 419T141 326Q141 281 153 243T188 181T243 158Z" />
<glyph unicode="&#xa5;" glyph-name="yen" horiz-adv-x="673" d="M195 -4Q191 0 191 11Q191 28 194 28Q202 28 216 31T243 41T258 52Q266 82 266 136H185Q180 136 180 148Q180 165 186 177H266V215H185Q180 215 180 228Q180 244 186 256H266V280Q265 282 264 287T258
299Q254 306 249 317T235 342L207 393Q199 408 184 434T155 485T132 524Q106 572 84 592Q62 610 26 610Q23 610 23 620T24 634Q36 635 68 635T154 636Q170 636 288 642Q290 636 290 624Q290 610 286 610Q271 610 251 604T231 584Q231 575 240 558L344 366Q350 361
354 368Q383 411 410 456T456 536T475 584Q475 595 457 602Q438 610 410 610Q406 610 406 624T409 642L516 636Q539 636 641 642Q644 635 644 626Q644 610 640 610Q630 610 613 606T579 595T554 578Q542 561 521 528T476 455T429 378T392 314T378 283V256H458Q464
256 464 244Q464 226 458 215H378V177H458Q464 177 464 164Q464 145 458 136H378Q378 82 386 52Q387 48 399 42T425 32T446 28Q450 28 450 13Q450 4 448 -4Q447 -4 433 -3T398 0T357 2T324 3Q307 3 279 2T226 -1T195 -4Z" />
<glyph unicode="&#xa6;" glyph-name="brokenbar" horiz-adv-x="143" d="M34 405V757Q32 763 39 765Q61 772 101 772Q106 772 107 771Q109 769 109 768V766L110 414Q110 405 99 400T72 393T46 394T34 405ZM34 -115V237Q32 243 39 245Q61 252 101 252Q106 252 107
251Q109 249 109 248V246L110 -106Q110 -115 99 -120T72 -127T46 -126T34 -115Z" />
<glyph unicode="&#xa7;" glyph-name="section" horiz-adv-x="394" d="M169 -41Q135 -41 110 -30T76 -6Q69 30 80 44T107 58Q124 58 150 33Q164 20 178 14T211 8Q231 8 247 23T263 66Q263 95 239 118T179 159Q162 167 144 176T109 196Q74 216 50 252T25 338Q25
423 86 466Q74 487 74 518Q74 582 117 616T223 651Q257 651 281 640T315 614Q319 590 313 570T283 550Q271 550 243 576Q215 602 192 602Q167 602 148 590T129 548Q129 516 153 493T213 452Q230 444 248 435T284 416Q319 397 343 362T368 276Q368 230 348 195T305
144Q318 117 318 90Q318 42 292 10Q265 -22 234 -31T169 -41ZM289 179Q311 201 311 225Q311 262 286 290T228 334Q195 349 158 374T103 430Q83 413 83 382Q83 344 107 317T164 276Q196 261 233 236T289 179Z" />
<glyph unicode="&#xa8;" glyph-name="dieresis" horiz-adv-x="366" d="M277 500Q252 500 235 517T218 559Q218 582 235 599T277 616Q300 616 317 599T334 559Q334 534 317 517T277 500ZM92 500Q67 500 50 517T33 559Q33 582 50 599T92 616Q115 616 132 599T149
559Q149 534 132 517T92 500Z" />
<glyph unicode="&#xa9;" glyph-name="copyright" horiz-adv-x="600" d="M300 68Q248 68 199 88T112 145T50 232T27 342Q27 399 48 448T106 535T193 594T300 615Q357 615 406 594T493 536T552 449T574 342Q574 282 552 232T490 146T402 89T300 68ZM301 107Q366
107 419 138T504 223T536 342Q536 408 504 461T419 545T301 577Q235 577 182 545T97 460T65 342Q65 278 96 225T181 139T301 107ZM299 197Q261 197 230 216T180 266T161 336Q161 376 179 409T229 462T301 482Q357 482 405 466Q406 466 408 451T414 421T417 402Q417
396 405 396Q401 396 395 398Q388 421 365 435T307 450Q270 450 248 419T225 346Q225 294 252 261T319 228Q361 228 381 245Q392 256 395 266T401 276Q418 276 419 272Q419 268 416 255T408 230T399 216Q362 197 299 197Z" />
<glyph unicode="&#xaa;" glyph-name="ordfeminine" horiz-adv-x="330" d="M104 248Q67 248 47 269T27 324Q27 347 40 362T72 387T106 402L178 424Q184 426 184 435V476Q184 498 173 511T145 524Q125 524 112 510T99 472Q99 452 62 452Q32 452 32 474Q32 493 52
511T102 543T164 556Q209 556 232 534T255 460V322Q255 290 278 290Q289 290 294 295T301 300Q305 300 305 294Q305 289 300 272Q271 250 241 250Q225 250 211 261T191 286Q170 269 149 259T104 248ZM139 293Q157 293 170 303T184 325V393Q165 386 151 382T130
374Q120 370 111 360T101 336Q101 315 112 304T139 293Z" />
<glyph unicode="&#xab;" glyph-name="guillemotleft" d="M418 73Q407 85 378 109T306 164T212 227Q205 230 205 241Q205 258 213 268Q284 310 337 352T410 414L419 423Q430 420 439 414T448 401Q448 397 431 379T380 328L300 248L338 209L380 167Q442 106 446
100Q447 98 447 94Q447 84 418 73ZM238 73Q227 85 198 109T126 164T32 227Q25 230 25 241Q25 258 33 268Q104 310 157 352T230 414L239 423Q250 420 259 414T268 401Q268 397 251 379T200 328L120 248L158 209L200 167Q262 106 266 100Q267 98 267 94Q267 84 238
73Z" />
<glyph unicode="&#xac;" glyph-name="logicalnot" horiz-adv-x="535" d="M443 154L437 161V350Q437 353 434 356T425 360H34Q28 360 28 370Q33 424 43 424H489Q501 424 501 412V169Q492 160 447 154H443Z" />
<glyph unicode="&#xae;" glyph-name="registered" horiz-adv-x="599" d="M300 130Q248 130 199 150T112 207T50 294T27 404Q27 461 48 510T106 597T193 656T300 677Q357 677 406 656T493 598T552 511T574 404Q574 344 552 294T490 208T402 151T300 130ZM301 169Q366
169 419 200T504 285T536 404Q536 470 504 523T419 607T301 639Q235 639 182 607T97 522T65 404Q65 340 96 287T181 201T301 169ZM442 257Q371 257 323 324Q304 350 296 366T277 388Q276 389 271 389Q264 389 264 382V321Q264 307 265 297T268 281Q269 278 279
275T293 271Q295 271 295 266Q295 259 294 258Q243 261 233 261L173 258Q172 259 172 264Q172 271 173 271Q178 271 188 274T200 281Q203 292 203 318V486Q203 512 200 522Q199 525 189 528T173 532Q172 532 172 538Q172 545 173 546L233 542Q240 542 247 543T264
544L294 545Q330 547 361 529T393 471Q393 446 381 426T349 397Q345 396 347 390Q363 346 407 299Q432 271 453 271Q455 265 455 264Q455 259 454 258Q452 257 442 257ZM289 410H296Q311 410 322 424T334 464Q334 493 323 507T295 522Q276 522 268 520Q265 520
265 516Q264 510 264 500T264 476V425Q264 415 271 413T289 410Z" />
<glyph unicode="&#xaf;" glyph-name="overscore" horiz-adv-x="384" d="M74 532L70 534Q68 538 68 541Q68 548 69 561T74 586T82 598H311Q316 598 316 591Q316 569 308 539Q307 534 302 532H74Z" />
<glyph unicode="&#xb0;" glyph-name="degree" horiz-adv-x="234" d="M117 437Q76 437 47 466T18 536Q18 576 47 605T117 634Q158 634 186 605T215 536Q215 495 186 466T117 437ZM117 478Q141 478 157 495T174 536Q174 562 157 577T117 593T76 577Q58 560 59 537T75
496T117 478Z" />
<glyph unicode="&#xb1;" glyph-name="plusminus" horiz-adv-x="532" d="M240 101Q234 101 234 109V304Q234 309 228 309H33Q27 309 27 319Q27 330 29 342T35 368Q36 370 38 372Q39 373 40 373H229Q234 373 234 379V565Q232 570 239 572Q253 576 265 578T288 580L298
574V378Q298 373 302 373H498Q506 373 506 367Q506 351 496 315Q495 309 490 309H302Q298 309 298 306V118Q291 108 246 102H243Q242 101 240 101ZM33 4Q27 4 27 14Q27 25 29 37T35 63Q36 65 38 67Q39 68 40 68H498Q506 68 506 62Q506 46 496 10Q495 4 490 4H33Z"
/>
<glyph unicode="&#xb2;" glyph-name="uni00B2" horiz-adv-x="330" d="M38 366Q26 377 26 389Q26 391 26 393T28 400Q51 424 70 445T104 483Q124 506 144 535T178 593T192 642Q192 664 177 683T134 702Q121 702 110 697T88 684Q79 677 73 671T59 658Q55 657 47
667T39 683Q39 689 40 690Q56 714 91 736T164 758Q211 758 242 727T274 650Q274 619 260 589T214 526Q193 505 179 492T149 466T106 432Q104 430 105 428T108 426H233Q254 426 262 433T274 451T281 467Q283 470 287 470Q299 470 304 465Q300 452 280 366H38Z" />
<glyph unicode="&#xb3;" glyph-name="uni00B3" horiz-adv-x="294" d="M106 359Q51 359 28 383Q26 389 26 395Q26 409 36 419T58 429Q71 429 91 412Q111 395 126 395Q158 395 180 417T202 481Q202 518 184 538T131 555L94 552Q86 560 86 569Q86 579 92 582Q176
600 176 667Q176 686 163 697T132 709Q121 709 110 704T87 690Q76 682 70 677T62 671Q56 671 50 683T46 699Q63 724 96 741T166 759Q185 759 204 751T236 726T250 685Q250 633 180 591Q197 591 217 578T253 541T268 487Q268 423 221 391T106 359Z" />
<glyph unicode="&#xb4;" glyph-name="acute" horiz-adv-x="247" d="M59 524Q54 524 49 529T44 540Q44 548 69 588T137 678Q146 687 171 687Q191 687 203 678T215 660Q215 650 201 634T166 598T122 562T82 535T59 524Z" />
<glyph unicode="&#xb5;" glyph-name="uni00B5" horiz-adv-x="513" d="M96 -227Q89 -227 74 -220T47 -205T35 -190Q35 -177 36 -142T39 -59T44 39T50 134T56 204Q56 210 56 222T54 252Q53 269 53 281T52 298V422Q56 428 68 435T90 442Q96 442 110 435T136 419T148
404Q148 377 143 340T128 256L122 223Q122 160 138 119Q153 77 180 77Q261 77 294 227V422Q298 428 310 435T332 442Q338 442 353 435T382 419T396 404Q396 379 390 340T373 246L368 223Q368 183 371 149T387 93T422 72Q439 72 456 83T482 103Q485 103 493 92Q496
86 496 76Q486 43 460 20T403 -4Q370 -3 350 35T322 128Q295 66 261 29T180 -9Q152 -9 138 16Q134 24 132 27T125 40Q121 51 117 63T112 76Q112 54 113 8T119 -95T134 -207Q129 -214 118 -220T96 -227Z" />
<glyph unicode="&#xb6;" glyph-name="paragraph" horiz-adv-x="468" d="M159 -4Q157 0 157 13T161 26Q167 26 180 29T204 38T217 48Q219 59 220 92T222 183V270Q222 277 202 277Q148 277 109 303T48 373T26 464Q26 523 52 565T119 629T206 652Q229 652 261 650T317
648Q347 648 376 649T420 652L434 654Q438 650 437 637T432 623Q419 623 398 618T374 604Q371 594 371 500L372 409V349Q372 342 377 344L420 353Q424 346 424 337Q424 319 404 310Q394 305 378 302Q373 300 373 297Q373 72 380 48Q382 43 393 38T418 29T439 26Q443
26 443 14Q443 0 439 -4Q427 -3 398 -2T335 0T278 2Q244 2 212 0T159 -4ZM284 330Q297 330 314 335Q320 337 320 342Q320 457 320 521T318 598Q318 601 312 605T298 609Q278 609 278 597Q277 517 277 452T276 335Q276 330 284 330ZM299 40Q306 40 311 44T316 54Q318
77 319 134T320 283Q320 287 316 287Q308 287 300 285T284 282Q276 280 276 274L278 53Q278 40 299 40Z" />
<glyph unicode="&#xb7;" glyph-name="middot" horiz-adv-x="220" d="M110 198Q76 198 60 219T43 266Q43 291 59 312T110 333Q143 333 159 312T176 265Q176 240 160 219T110 198Z" />
<glyph unicode="&#xb8;" glyph-name="cedilla" horiz-adv-x="443" d="M198 -154Q170 -154 158 -142Q155 -130 155 -126Q155 -121 159 -117T166 -112Q174 -112 185 -119T209 -126Q229 -126 239 -117T250 -95Q250 -81 242 -73T222 -64Q209 -64 194 -70Q192 -70 187
-65T182 -56Q186 -50 192 -38T205 -16T212 -3H239L223 -28L245 -27Q266 -27 280 -42T294 -77Q294 -112 267 -133T198 -154Z" />
<glyph unicode="&#xb9;" glyph-name="uni00B9" horiz-adv-x="270" d="M35 381Q35 394 38 394Q45 394 56 396T78 401T91 408Q100 426 100 440V638Q100 678 84 678Q79 678 37 662Q23 667 23 680Q23 688 24 689Q56 704 86 721T140 751T179 764H180Q183 764 188 755T195
742Q183 706 183 660V450Q183 424 193 408Q196 405 206 402T227 396T243 394Q247 394 247 378Q247 372 245 366L199 368Q181 369 168 369T145 370Q135 370 121 370T86 368L38 366Q35 368 35 381Z" />
<glyph unicode="&#xba;" glyph-name="ordmasculine" horiz-adv-x="368" d="M185 247Q141 247 105 268T48 323T27 400Q27 443 48 477T105 533T185 554Q229 554 264 533T321 477T342 400Q342 358 321 324T265 268T185 247ZM193 277Q226 277 242 309T259 384Q259
440 240 481T177 523Q143 523 126 491T109 416Q109 360 129 319T193 277Z" />
<glyph unicode="&#xbb;" glyph-name="guillemotright" horiz-adv-x="473" d="M54 73Q25 84 25 94Q25 98 26 100Q30 106 92 167L134 209L172 248L92 328Q59 361 42 379T24 401Q24 407 33 413T53 423L62 414Q82 394 135 352T259 268Q267 258 267 241Q267 230 260
227Q209 195 167 164T95 109T54 73ZM234 73Q205 84 205 94Q205 98 206 100Q210 106 272 167L314 209L352 248L272 328Q239 361 222 379T204 401Q204 407 213 413T233 423L242 414Q262 394 315 352T439 268Q447 258 447 241Q447 230 440 227Q389 195 347 164T275
109T234 73Z" />
<glyph unicode="&#xbc;" glyph-name="onequarter" horiz-adv-x="741" d="M38 252Q35 254 35 267Q35 280 38 280Q45 280 56 282T78 287T91 294Q100 312 100 326V524Q100 564 84 564Q79 564 37 548Q23 553 23 566Q23 574 24 575Q56 590 86 607T140 637T179 650H180Q183
650 188 641T195 628Q183 592 183 546V336Q183 310 193 294Q196 291 206 288T227 282T243 280Q247 280 247 264Q247 258 245 252L199 254Q181 255 168 255T145 256Q135 256 121 256T86 254L38 252ZM209 -16Q198 -16 186 -6T173 8V11L520 643Q522 646 526 646Q538
646 550 636T563 620L562 619V617L214 -14Q212 -16 209 -16ZM633 -3Q592 -3 592 5V104Q592 109 587 109H434Q423 117 423 133L633 390Q641 399 654 399Q671 399 671 391V161Q671 157 677 157H699Q711 157 711 113Q711 111 707 107H675Q671 107 671 102V2Q666 -3
633 -3ZM497 158H589Q592 158 592 160V285L493 165Q492 164 493 161T497 158Z" />
<glyph unicode="&#xbd;" glyph-name="onehalf" horiz-adv-x="793" d="M38 252Q35 254 35 267Q35 280 38 280Q45 280 56 282T78 287T91 294Q100 312 100 326V524Q100 564 84 564Q79 564 37 548Q23 553 23 566Q23 574 24 575Q56 590 86 607T140 637T179 650H180Q183
650 188 641T195 628Q183 592 183 546V336Q183 310 193 294Q196 291 206 288T227 282T243 280Q247 280 247 264Q247 258 245 252L199 254Q181 255 168 255T145 256Q135 256 121 256T86 254L38 252ZM209 -16Q198 -16 186 -6T173 8V11L520 643Q522 646 526 646Q538
646 550 636T563 620L562 619V617L214 -14Q212 -16 209 -16ZM501 0Q489 11 489 23Q489 25 489 27T491 34Q514 58 533 79T567 117Q587 140 607 169T641 227T655 276Q655 298 640 317T597 336Q584 336 573 331T551 318Q542 311 536 305T522 292Q518 291 510 301T502
317Q502 323 503 324Q519 348 554 370T627 392Q674 392 705 361T737 284Q737 253 723 223T677 160Q656 139 642 126T612 100T569 66Q567 64 568 62T571 60H696Q717 60 725 67T737 85T744 101Q746 104 750 104Q762 104 767 99Q763 86 743 0H501Z" />
<glyph unicode="&#xbe;" glyph-name="threequarters" horiz-adv-x="762" d="M106 246Q51 246 28 270Q26 276 26 282Q26 296 36 306T58 316Q71 316 91 299Q111 282 126 282Q158 282 180 304T202 368Q202 442 131 442L94 439Q86 447 86 456Q86 466 92 469Q176 487
176 554Q176 573 163 584T132 596Q109 596 87 577Q65 558 62 558Q56 558 50 570T46 586Q63 611 96 628T166 646Q185 646 204 638T236 613T250 572Q250 520 180 478Q197 478 217 465T253 428T268 374Q268 310 221 278T106 246ZM230 -16Q219 -16 207 -6T194 8V11L541
643Q543 646 547 646Q559 646 571 636T584 620L583 619V617L235 -14Q233 -16 230 -16ZM654 -3Q613 -3 613 5V104Q613 109 608 109H455Q444 117 444 133L654 390Q662 399 675 399Q692 399 692 391V161Q692 157 698 157H720Q732 157 732 113Q732 111 728 107H696Q692
107 692 102V2Q687 -3 654 -3ZM518 158H610Q613 158 613 160V285L514 165Q513 164 514 161T518 158Z" />
<glyph unicode="&#xbf;" glyph-name="questiondown" horiz-adv-x="325" d="M234 438Q268 438 284 417T301 370Q301 345 285 324T234 303Q201 303 185 324T168 371Q168 396 184 417T234 438ZM244 250Q258 250 258 164Q258 131 253 112T236 79T201 50Q180 35 154
23T109 -7T90 -56Q90 -85 111 -105T161 -125Q175 -125 201 -120T241 -115Q265 -115 283 -130T301 -168Q301 -186 295 -206Q270 -218 250 -218Q190 -218 139 -195T55 -130T23 -34Q23 30 50 65T133 128Q149 136 158 140T176 150Q201 165 208 174T216 213Q216 233
218 239Q226 250 244 250Z" />
<glyph unicode="&#xc0;" glyph-name="Agrave" horiz-adv-x="736" d="M31 -3Q27 1 27 12Q27 30 29 30Q37 30 52 34T82 44T101 58Q111 73 120 92T139 136L325 586Q349 647 362 658Q369 665 379 665Q386 665 391 660L601 136Q609 117 616 99T631 63Q635 53 649 46T678
34T701 30Q705 30 705 12Q705 1 703 -3L577 3L447 -3Q443 1 443 16Q443 30 447 30Q459 30 480 36T505 50Q508 56 508 63Q508 73 503 90T489 132L454 225Q450 229 447 229Q431 230 410 230T361 231Q307 231 247 228Q241 228 241 224L203 131Q193 106 189 90T184
66Q184 54 195 46Q201 42 213 39T239 33T257 30Q260 29 260 16Q260 9 260 5T258 -3Q221 -1 198 1T154 3T106 2T31 -3ZM343 285Q379 285 425 288L427 292L351 492L269 292Q269 288 271 288Q306 285 343 285ZM420 733Q413 733 393 740T346 760T296 787T256 814T240
837Q240 852 256 861T294 870Q306 870 312 867Q327 856 347 838T386 801T419 768T432 750Q432 744 428 739T420 733Z" />
<glyph unicode="&#xc1;" glyph-name="Aacute" horiz-adv-x="736" d="M31 -3Q27 1 27 12Q27 30 29 30Q37 30 52 34T82 44T101 58Q111 73 120 92T139 136L325 586Q349 647 362 658Q369 665 379 665Q386 665 391 660L601 136Q609 117 616 99T631 63Q635 53 649 46T678
34T701 30Q705 30 705 12Q705 1 703 -3L577 3L447 -3Q443 1 443 16Q443 30 447 30Q459 30 480 36T505 50Q508 56 508 63Q508 73 503 90T489 132L454 225Q450 229 447 229Q431 230 410 230T361 231Q307 231 247 228Q241 228 241 224L203 131Q193 106 189 90T184
66Q184 54 195 46Q201 42 213 39T239 33T257 30Q260 29 260 16Q260 9 260 5T258 -3Q221 -1 198 1T154 3T106 2T31 -3ZM343 285Q379 285 425 288L427 292L351 492L269 292Q269 288 271 288Q306 285 343 285ZM331 733Q327 733 323 738T319 750Q319 753 332 767T364
801T404 838T439 867Q445 870 457 870Q479 870 495 861T511 837Q511 826 495 813T453 785T402 759T357 740T331 733Z" />
<glyph unicode="&#xc2;" glyph-name="Acircumflex" horiz-adv-x="736" d="M31 -3Q27 1 27 12Q27 30 29 30Q37 30 52 34T82 44T101 58Q111 73 120 92T139 136L325 586Q349 647 362 658Q369 665 379 665Q386 665 391 660L601 136Q609 117 616 99T631 63Q635 53 649
46T678 34T701 30Q705 30 705 12Q705 1 703 -3L577 3L447 -3Q443 1 443 16Q443 30 447 30Q459 30 480 36T505 50Q508 56 508 63Q508 73 503 90T489 132L454 225Q450 229 447 229Q431 230 410 230T361 231Q307 231 247 228Q241 228 241 224L203 131Q193 106 189
90T184 66Q184 54 195 46Q201 42 213 39T239 33T257 30Q260 29 260 16Q260 9 260 5T258 -3Q221 -1 198 1T154 3T106 2T31 -3ZM343 285Q379 285 425 288L427 292L351 492L269 292Q269 288 271 288Q306 285 343 285ZM263 723Q253 723 253 742L277 763Q288 773 299
783T321 803Q334 816 344 827T363 850Q371 859 375 859Q380 859 387 850Q402 833 412 821T428 804Q457 777 476 761T497 742Q497 723 487 723Q468 723 375 783Q359 772 335 758T290 733T263 723Z" />
<glyph unicode="&#xc3;" glyph-name="Atilde" horiz-adv-x="736" d="M31 -3Q27 1 27 12Q27 30 29 30Q37 30 52 34T82 44T101 58Q111 73 120 92T139 136L325 586Q349 647 362 658Q369 665 379 665Q386 665 391 660L601 136Q609 117 616 99T631 63Q635 53 649 46T678
34T701 30Q705 30 705 12Q705 1 703 -3L577 3L447 -3Q443 1 443 16Q443 30 447 30Q459 30 480 36T505 50Q508 56 508 63Q508 73 503 90T489 132L454 225Q450 229 447 229Q431 230 410 230T361 231Q307 231 247 228Q241 228 241 224L203 131Q193 106 189 90T184
66Q184 54 195 46Q201 42 213 39T239 33T257 30Q260 29 260 16Q260 9 260 5T258 -3Q221 -1 198 1T154 3T106 2T31 -3ZM343 285Q379 285 425 288L427 292L351 492L269 292Q269 288 271 288Q306 285 343 285ZM453 741Q417 741 362 772Q307 802 271 802Q256 802 244
789T221 764T201 751Q193 751 193 770Q193 787 211 814Q248 860 294 860Q330 860 385 830Q440 799 476 799Q493 799 519 825Q543 850 545 850Q552 850 552 830Q552 812 535 786Q501 741 453 741Z" />
<glyph unicode="&#xc4;" glyph-name="Adieresis" horiz-adv-x="736" d="M31 -3Q27 1 27 12Q27 30 29 30Q37 30 52 34T82 44T101 58Q111 73 120 92T139 136L325 586Q349 647 362 658Q369 665 379 665Q386 665 391 660L601 136Q609 117 616 99T631 63Q635 53 649
46T678 34T701 30Q705 30 705 12Q705 1 703 -3L577 3L447 -3Q443 1 443 16Q443 30 447 30Q459 30 480 36T505 50Q508 56 508 63Q508 73 503 90T489 132L454 225Q450 229 447 229Q431 230 410 230T361 231Q307 231 247 228Q241 228 241 224L203 131Q193 106 189
90T184 66Q184 54 195 46Q201 42 213 39T239 33T257 30Q260 29 260 16Q260 9 260 5T258 -3Q221 -1 198 1T154 3T106 2T31 -3ZM343 285Q379 285 425 288L427 292L351 492L269 292Q269 288 271 288Q306 285 343 285ZM469 726Q444 726 427 743T410 785Q410 808 427
825T469 842Q492 842 509 825T526 785Q526 760 509 743T469 726ZM284 726Q259 726 242 743T225 785Q225 808 242 825T284 842Q307 842 324 825T341 785Q341 760 324 743T284 726Z" />
<glyph unicode="&#xc5;" glyph-name="Aring" horiz-adv-x="736" d="M31 -3Q27 1 27 12Q27 30 29 30Q37 30 52 34T82 44T101 58Q111 73 120 92T139 136L325 586Q349 647 362 658Q369 665 379 665Q386 665 391 660L601 136Q609 117 616 99T631 63Q635 53 649 46T678
34T701 30Q705 30 705 12Q705 1 703 -3L577 3L447 -3Q443 1 443 16Q443 30 447 30Q459 30 480 36T505 50Q508 56 508 63Q508 73 503 90T489 132L454 225Q450 229 447 229Q431 230 410 230T361 231Q307 231 247 228Q241 228 241 224L203 131Q193 106 189 90T184
66Q184 54 195 46Q201 42 213 39T239 33T257 30Q260 29 260 16Q260 9 260 5T258 -3Q221 -1 198 1T154 3T106 2T31 -3ZM343 285Q379 285 425 288L427 292L351 492L269 292Q269 288 271 288Q306 285 343 285ZM375 664Q337 664 309 692T281 759Q281 798 308 825T375
852Q413 852 440 825T467 759Q467 720 440 692T375 664ZM375 704Q397 704 412 720T428 759Q428 782 413 797T375 813Q352 813 337 797T321 759Q321 736 337 720T375 704Z" />
<glyph unicode="&#xc6;" glyph-name="AE" horiz-adv-x="914" d="M5 -6Q3 -3 4 10Q6 24 11 24Q19 24 34 29T65 41T87 56Q100 71 113 90T142 134L425 584Q430 592 430 600L428 605Q425 613 407 618T377 624Q373 624 373 640Q373 654 377 658Q407 656 438 655T504
654Q526 654 565 655T659 658Q715 660 757 661T827 662Q829 647 833 626T843 579L856 520Q851 515 835 515Q824 515 821 522Q788 611 693 611H641Q566 611 565 598Q559 570 559 517V360Q559 354 603 354H659Q716 354 728 359Q739 364 745 394Q748 407 751 419Q752
426 767 426Q781 426 786 421V232Q782 228 767 228Q754 228 751 236Q747 250 744 259T739 276Q734 287 733 288T723 296Q709 304 631 304Q559 304 559 296V141Q559 86 568 60Q572 47 636 47H673Q752 47 792 68Q808 76 828 103T859 164Q861 170 873 170Q895 170
901 164L869 75Q863 59 856 35T847 -5Q819 -5 775 -5T669 -3Q608 -1 568 0T505 0L377 -6Q373 -2 373 12Q373 30 377 30Q386 30 399 32T425 40T439 50Q443 64 444 84T446 133V223Q445 227 441 227Q425 228 411 228T384 229Q330 229 270 226Q263 226 263 222L205
129Q175 80 172 64Q169 51 178 42Q186 35 206 30T235 25Q238 24 236 12T230 -6Q224 -5 206 -4T165 -2T125 0Q107 0 82 -1T36 -4T5 -6ZM379 283L431 286Q436 286 441 289T446 296V496Q446 500 442 500Q437 500 434 494L307 290Q306 286 308 286Q325 285 342 284T379
283Z" />
<glyph unicode="&#xc7;" glyph-name="Ccedilla" horiz-adv-x="639" d="M343 -6Q277 -6 220 20T118 91T50 195T25 322Q25 393 50 455T120 565T225 640T354 667Q467 667 590 640Q592 640 593 621T596 575T598 525T599 494Q599 479 575 479Q568 479 561 483Q557 501
547 520T515 563Q494 587 453 602T358 618Q293 618 247 581T176 481T151 343Q151 259 178 191T259 83T386 42Q474 42 527 98Q543 115 551 136T565 174T574 191Q609 191 613 182Q613 176 609 154T598 105T586 58T575 36Q488 -6 343 -6ZM310 -179Q282 -179 262 -164Q259
-149 259 -146Q259 -140 263 -135T272 -130Q275 -130 293 -138Q311 -146 322 -146Q345 -146 358 -136T371 -110Q371 -94 362 -84T338 -73Q321 -73 306 -80Q304 -80 298 -74T292 -64Q298 -54 307 -39T327 -1H358L339 -30H365Q389 -30 406 -47T423 -88Q423 -129 392
-154T310 -179Z" />
<glyph unicode="&#xc8;" glyph-name="Egrave" horiz-adv-x="584" d="M30 -3Q27 0 27 13Q27 30 30 30Q39 30 53 33T81 41T97 52Q104 72 104 143V521Q104 582 97 603Q95 611 83 616T55 625T29 628Q25 628 25 643Q25 657 29 661Q62 659 95 658T162 656Q184 656 223
657T317 661Q428 664 485 664Q487 649 491 628T501 581L514 522Q509 517 493 517Q482 517 479 524Q446 613 351 613H299Q224 613 223 600Q217 572 217 519V362Q217 356 261 356H317Q374 356 386 361Q397 366 403 396Q406 409 409 421Q410 428 425 428Q439 428 444
423V234Q440 230 425 230Q412 230 409 238Q405 252 402 261T397 278Q392 289 391 290T381 298Q367 306 289 306Q217 306 217 298V143Q217 88 226 62Q230 49 294 49H331Q410 49 450 70Q466 78 486 105T517 166Q519 172 531 172Q553 172 559 166L527 77Q521 61 514
37T505 -3Q465 -3 340 0Q277 2 233 2T163 1L30 -3ZM337 733Q330 733 310 740T263 760T213 787T173 814T157 837Q157 852 173 861T211 870Q223 870 229 867Q244 856 264 838T303 801T336 768T349 750Q349 744 345 739T337 733Z" />
<glyph unicode="&#xc9;" glyph-name="Eacute" horiz-adv-x="584" d="M30 -3Q27 0 27 13Q27 30 30 30Q39 30 53 33T81 41T97 52Q104 72 104 143V521Q104 582 97 603Q95 611 83 616T55 625T29 628Q25 628 25 643Q25 657 29 661Q62 659 95 658T162 656Q184 656 223
657T317 661Q428 664 485 664Q487 649 491 628T501 581L514 522Q509 517 493 517Q482 517 479 524Q446 613 351 613H299Q224 613 223 600Q217 572 217 519V362Q217 356 261 356H317Q374 356 386 361Q397 366 403 396Q406 409 409 421Q410 428 425 428Q439 428 444
423V234Q440 230 425 230Q412 230 409 238Q405 252 402 261T397 278Q392 289 391 290T381 298Q367 306 289 306Q217 306 217 298V143Q217 88 226 62Q230 49 294 49H331Q410 49 450 70Q466 78 486 105T517 166Q519 172 531 172Q553 172 559 166L527 77Q521 61 514
37T505 -3Q465 -3 340 0Q277 2 233 2T163 1L30 -3ZM248 733Q244 733 240 738T236 750Q236 753 249 767T281 801T321 838T356 867Q362 870 374 870Q396 870 412 861T428 837Q428 826 412 813T370 785T319 759T274 740T248 733Z" />
<glyph unicode="&#xca;" glyph-name="Ecircumflex" horiz-adv-x="584" d="M30 -3Q27 0 27 13Q27 30 30 30Q39 30 53 33T81 41T97 52Q104 72 104 143V521Q104 582 97 603Q95 611 83 616T55 625T29 628Q25 628 25 643Q25 657 29 661Q62 659 95 658T162 656Q184 656
223 657T317 661Q428 664 485 664Q487 649 491 628T501 581L514 522Q509 517 493 517Q482 517 479 524Q446 613 351 613H299Q224 613 223 600Q217 572 217 519V362Q217 356 261 356H317Q374 356 386 361Q397 366 403 396Q406 409 409 421Q410 428 425 428Q439 428
444 423V234Q440 230 425 230Q412 230 409 238Q405 252 402 261T397 278Q392 289 391 290T381 298Q367 306 289 306Q217 306 217 298V143Q217 88 226 62Q230 49 294 49H331Q410 49 450 70Q466 78 486 105T517 166Q519 172 531 172Q553 172 559 166L527 77Q521 61
514 37T505 -3Q465 -3 340 0Q277 2 233 2T163 1L30 -3ZM180 723Q170 723 170 742L194 763Q205 773 216 783T238 803Q251 816 261 827T280 850Q288 859 292 859Q297 859 304 850Q319 833 329 821T345 804Q374 777 393 761T414 742Q414 723 404 723Q385 723 292 783Q276
772 252 758T207 733T180 723Z" />
<glyph unicode="&#xcb;" glyph-name="Edieresis" horiz-adv-x="584" d="M30 -3Q27 0 27 13Q27 30 30 30Q39 30 53 33T81 41T97 52Q104 72 104 143V521Q104 582 97 603Q95 611 83 616T55 625T29 628Q25 628 25 643Q25 657 29 661Q62 659 95 658T162 656Q184 656
223 657T317 661Q428 664 485 664Q487 649 491 628T501 581L514 522Q509 517 493 517Q482 517 479 524Q446 613 351 613H299Q224 613 223 600Q217 572 217 519V362Q217 356 261 356H317Q374 356 386 361Q397 366 403 396Q406 409 409 421Q410 428 425 428Q439 428
444 423V234Q440 230 425 230Q412 230 409 238Q405 252 402 261T397 278Q392 289 391 290T381 298Q367 306 289 306Q217 306 217 298V143Q217 88 226 62Q230 49 294 49H331Q410 49 450 70Q466 78 486 105T517 166Q519 172 531 172Q553 172 559 166L527 77Q521 61
514 37T505 -3Q465 -3 340 0Q277 2 233 2T163 1L30 -3ZM386 726Q361 726 344 743T327 785Q327 808 344 825T386 842Q409 842 426 825T443 785Q443 760 426 743T386 726ZM201 726Q176 726 159 743T142 785Q142 808 159 825T201 842Q224 842 241 825T258 785Q258
760 241 743T201 726Z" />
<glyph unicode="&#xcc;" glyph-name="Igrave" horiz-adv-x="323" d="M30 -3Q26 1 26 11Q26 30 30 30Q38 30 53 33T81 41T96 52Q100 68 102 89T104 136V522Q104 580 96 606Q94 612 82 617T55 625T32 629Q28 629 28 644Q28 660 30 662L86 659Q111 658 130 657T163
656L291 662Q294 653 294 646Q294 629 290 629Q284 629 269 625T241 616T225 606Q221 590 219 569T217 518V142Q217 87 226 52Q228 48 240 43T267 34T288 30Q292 30 292 11Q292 5 290 -3L163 3Q128 5 91 2T30 -3ZM207 733Q200 733 180 740T133 760T83 787T43 814T27
837Q27 852 43 861T81 870Q93 870 99 867Q114 856 134 838T173 801T206 768T219 750Q219 744 215 739T207 733Z" />
<glyph unicode="&#xcd;" glyph-name="Iacute" horiz-adv-x="323" d="M30 -3Q26 1 26 11Q26 30 30 30Q38 30 53 33T81 41T96 52Q100 68 102 89T104 136V522Q104 580 96 606Q94 612 82 617T55 625T32 629Q28 629 28 644Q28 660 30 662L86 659Q111 658 130 657T163
656L291 662Q294 653 294 646Q294 629 290 629Q284 629 269 625T241 616T225 606Q221 590 219 569T217 518V142Q217 87 226 52Q228 48 240 43T267 34T288 30Q292 30 292 11Q292 5 290 -3L163 3Q128 5 91 2T30 -3ZM118 733Q114 733 110 738T106 750Q106 753 119
767T151 801T191 838T226 867Q232 870 244 870Q266 870 282 861T298 837Q298 826 282 813T240 785T189 759T144 740T118 733Z" />
<glyph unicode="&#xce;" glyph-name="Icircumflex" horiz-adv-x="323" d="M30 -3Q26 1 26 11Q26 30 30 30Q38 30 53 33T81 41T96 52Q100 68 102 89T104 136V522Q104 580 96 606Q94 612 82 617T55 625T32 629Q28 629 28 644Q28 660 30 662L86 659Q111 658 130 657T163
656L291 662Q294 653 294 646Q294 629 290 629Q284 629 269 625T241 616T225 606Q221 590 219 569T217 518V142Q217 87 226 52Q228 48 240 43T267 34T288 30Q292 30 292 11Q292 5 290 -3L163 3Q128 5 91 2T30 -3ZM50 723Q40 723 40 742L64 763Q75 773 86 783T108
803Q121 816 131 827T150 850Q158 859 162 859Q167 859 174 850Q189 833 199 821T215 804Q244 777 263 761T284 742Q284 723 274 723Q255 723 162 783Q146 772 122 758T77 733T50 723Z" />
<glyph unicode="&#xcf;" glyph-name="Idieresis" horiz-adv-x="323" d="M30 -3Q26 1 26 11Q26 30 30 30Q38 30 53 33T81 41T96 52Q100 68 102 89T104 136V522Q104 580 96 606Q94 612 82 617T55 625T32 629Q28 629 28 644Q28 660 30 662L86 659Q111 658 130 657T163
656L291 662Q294 653 294 646Q294 629 290 629Q284 629 269 625T241 616T225 606Q221 590 219 569T217 518V142Q217 87 226 52Q228 48 240 43T267 34T288 30Q292 30 292 11Q292 5 290 -3L163 3Q128 5 91 2T30 -3ZM256 726Q231 726 214 743T197 785Q197 808 214
825T256 842Q279 842 296 825T313 785Q313 760 296 743T256 726ZM71 726Q46 726 29 743T12 785Q12 808 29 825T71 842Q94 842 111 825T128 785Q128 760 111 743T71 726Z" />
<glyph unicode="&#xd0;" glyph-name="Eth" horiz-adv-x="718" d="M36 -4Q32 0 32 12Q32 30 36 30Q44 30 59 33T87 41T103 52Q110 69 110 143V308H54Q48 308 48 322Q48 343 54 350H110V521Q110 579 103 603Q101 609 88 614T59 624T35 628Q31 628 31 643Q31 658
34 661Q102 658 168 658H342Q425 658 492 631T602 557Q643 511 664 454T686 336Q686 240 645 164T527 42T340 -3L265 -1Q236 1 212 1T169 1Q141 1 108 0T55 -2L36 -4ZM356 48Q456 48 509 121T562 340Q562 412 540 471Q518 531 468 569T350 608H344Q248 608 236
592Q223 576 223 530V350H400Q406 350 406 338Q406 322 400 308H223V138Q223 82 235 64Q241 59 263 55T312 50T356 48Z" />
<glyph unicode="&#xd1;" glyph-name="Ntilde" horiz-adv-x="753" d="M613 -5Q598 -5 581 18L183 546V141Q183 83 191 59Q195 51 211 45T246 34T273 30Q276 30 276 16T275 -3L150 3Q132 3 108 2T62 -1T31 -3Q27 1 27 14Q27 30 31 30Q43 30 60 33T92 43T113 60Q123
80 123 144V536Q123 589 112 609Q110 614 94 618T61 625T33 628Q29 628 29 643T32 662Q85 660 114 659T151 657Q168 657 190 658T241 662Q263 622 312 555T428 401T569 210Q570 216 570 226T571 251V523Q571 577 561 603Q558 611 543 617T511 626T483 629Q479 629
479 643T481 662Q534 658 565 657T607 655Q620 655 637 656T674 659Q715 662 725 662Q727 656 727 646Q727 629 723 629Q714 629 697 626T664 616T642 601Q631 573 631 518V139Q631 121 632 86T635 -1Q631 -5 613 -5ZM455 741Q419 741 364 772Q309 802 273 802Q258
802 246 789T223 764T203 751Q195 751 195 770Q195 787 213 814Q250 860 296 860Q332 860 387 830Q442 799 478 799Q495 799 521 825Q545 850 547 850Q554 850 554 830Q554 812 537 786Q503 741 455 741Z" />
<glyph unicode="&#xd2;" glyph-name="Ograve" horiz-adv-x="693" d="M119 89Q25 187 25 328Q25 398 50 459T119 567T221 640T345 667Q411 667 469 641T571 568T641 460T666 328Q666 187 572 89Q507 21 426 -1T265 -2T119 89ZM361 40Q418 40 457 76T518 174T539
309Q539 385 519 454Q506 499 480 536T416 596T330 618Q273 618 234 582T174 485T153 350Q153 275 174 207Q188 162 214 124T277 63T361 40ZM392 733Q385 733 365 740T318 760T268 787T228 814T212 837Q212 852 228 861T266 870Q278 870 284 867Q299 856 319 838T358
801T391 768T404 750Q404 744 400 739T392 733Z" />
<glyph unicode="&#xd3;" glyph-name="Oacute" horiz-adv-x="693" d="M119 89Q25 187 25 328Q25 398 50 459T119 567T221 640T345 667Q411 667 469 641T571 568T641 460T666 328Q666 187 572 89Q507 21 426 -1T265 -2T119 89ZM361 40Q418 40 457 76T518 174T539
309Q539 385 519 454Q506 499 480 536T416 596T330 618Q273 618 234 582T174 485T153 350Q153 275 174 207Q188 162 214 124T277 63T361 40ZM303 733Q299 733 295 738T291 750Q291 753 304 767T336 801T376 838T411 867Q417 870 429 870Q451 870 467 861T483 837Q483
826 467 813T425 785T374 759T329 740T303 733Z" />
<glyph unicode="&#xd4;" glyph-name="Ocircumflex" horiz-adv-x="693" d="M119 89Q25 187 25 328Q25 398 50 459T119 567T221 640T345 667Q411 667 469 641T571 568T641 460T666 328Q666 187 572 89Q507 21 426 -1T265 -2T119 89ZM361 40Q418 40 457 76T518 174T539
309Q539 385 519 454Q506 499 480 536T416 596T330 618Q273 618 234 582T174 485T153 350Q153 275 174 207Q188 162 214 124T277 63T361 40ZM235 723Q225 723 225 742L249 763Q260 773 271 783T293 803Q306 816 316 827T335 850Q343 859 347 859Q352 859 359 850Q374
833 384 821T400 804Q429 777 448 761T469 742Q469 723 459 723Q440 723 347 783Q331 772 307 758T262 733T235 723Z" />
<glyph unicode="&#xd5;" glyph-name="Otilde" horiz-adv-x="693" d="M119 89Q25 187 25 328Q25 398 50 459T119 567T221 640T345 667Q411 667 469 641T571 568T641 460T666 328Q666 187 572 89Q507 21 426 -1T265 -2T119 89ZM361 40Q418 40 457 76T518 174T539
309Q539 385 519 454Q506 499 480 536T416 596T330 618Q273 618 234 582T174 485T153 350Q153 275 174 207Q188 162 214 124T277 63T361 40ZM425 741Q389 741 334 772Q279 802 243 802Q228 802 216 789T193 764T173 751Q165 751 165 770Q165 787 183 814Q220 860
266 860Q302 860 357 830Q412 799 448 799Q465 799 491 825Q515 850 517 850Q524 850 524 830Q524 812 507 786Q473 741 425 741Z" />
<glyph unicode="&#xd6;" glyph-name="Odieresis" horiz-adv-x="693" d="M119 89Q25 187 25 328Q25 398 50 459T119 567T221 640T345 667Q411 667 469 641T571 568T641 460T666 328Q666 187 572 89Q507 21 426 -1T265 -2T119 89ZM361 40Q418 40 457 76T518 174T539
309Q539 385 519 454Q506 499 480 536T416 596T330 618Q273 618 234 582T174 485T153 350Q153 275 174 207Q188 162 214 124T277 63T361 40ZM441 726Q416 726 399 743T382 785Q382 808 399 825T441 842Q464 842 481 825T498 785Q498 760 481 743T441 726ZM256 726Q231
726 214 743T197 785Q197 808 214 825T256 842Q279 842 296 825T313 785Q313 760 296 743T256 726Z" />
<glyph unicode="&#xd7;" glyph-name="multiply" horiz-adv-x="419" d="M61 57Q54 57 48 66Q22 101 25 107L161 244Q164 246 160 250L28 382Q25 386 26 390Q31 401 43 415T62 432Q67 434 71 430L206 295Q208 292 212 296L348 430Q352 434 356 431Q361 429 374 414T391
388L390 382L258 250Q254 246 256 244L390 112L391 105Q389 99 382 89T368 70T359 59Q355 55 350 60L212 198Q208 202 205 198L66 58L61 57Z" />
<glyph unicode="&#xd8;" glyph-name="Oslash" horiz-adv-x="698" d="M159 -16Q149 -12 137 -5T126 7L155 56Q96 102 61 173T26 328Q26 399 51 460T120 568T222 641T345 667Q425 667 496 627L523 672Q561 657 556 650L530 606Q591 562 629 491T668 328Q668 235
625 158Q582 80 508 35T347 -10Q304 -10 264 1T189 33L159 -16ZM154 350Q154 296 166 241T205 140L459 564Q435 589 404 603T332 618Q274 618 235 582T175 485T154 350ZM362 40Q408 40 441 63T497 124T529 211T540 309Q540 368 527 427T485 531L230 104Q255 75
287 58T362 40Z" />
<glyph unicode="&#xd9;" glyph-name="Ugrave" horiz-adv-x="733" d="M358 -2Q238 -2 169 70T100 304V522Q100 585 92 606Q90 612 78 617T51 625T28 629Q24 629 24 644Q24 659 27 662L160 656Q179 656 288 662Q289 658 289 654T290 646Q290 629 286 629Q280 629
265 626T236 617T222 606Q218 591 216 569T214 518V288Q214 185 258 124T382 62Q459 62 505 112T552 280V524Q552 585 542 604Q538 610 523 616T490 626T464 630Q460 630 460 644T462 662Q516 658 547 657T588 655Q601 655 617 656T655 659Q696 662 706 662Q707
658 707 655T708 646Q708 630 704 630Q695 630 678 627T645 617T623 602Q612 575 612 519V284Q612 128 539 61Q504 28 460 13T358 -2ZM412 733Q405 733 385 740T338 760T288 787T248 814T232 837Q232 852 248 861T286 870Q298 870 304 867Q319 856 339 838T378
801T411 768T424 750Q424 744 420 739T412 733Z" />
<glyph unicode="&#xda;" glyph-name="Uacute" horiz-adv-x="733" d="M358 -2Q238 -2 169 70T100 304V522Q100 585 92 606Q90 612 78 617T51 625T28 629Q24 629 24 644Q24 659 27 662L160 656Q179 656 288 662Q289 658 289 654T290 646Q290 629 286 629Q280 629
265 626T236 617T222 606Q218 591 216 569T214 518V288Q214 185 258 124T382 62Q459 62 505 112T552 280V524Q552 585 542 604Q538 610 523 616T490 626T464 630Q460 630 460 644T462 662Q516 658 547 657T588 655Q601 655 617 656T655 659Q696 662 706 662Q707
658 707 655T708 646Q708 630 704 630Q695 630 678 627T645 617T623 602Q612 575 612 519V284Q612 128 539 61Q504 28 460 13T358 -2ZM323 733Q319 733 315 738T311 750Q311 753 324 767T356 801T396 838T431 867Q437 870 449 870Q471 870 487 861T503 837Q503
826 487 813T445 785T394 759T349 740T323 733Z" />
<glyph unicode="&#xdb;" glyph-name="Ucircumflex" horiz-adv-x="733" d="M358 -2Q238 -2 169 70T100 304V522Q100 585 92 606Q90 612 78 617T51 625T28 629Q24 629 24 644Q24 659 27 662L160 656Q179 656 288 662Q289 658 289 654T290 646Q290 629 286 629Q280
629 265 626T236 617T222 606Q218 591 216 569T214 518V288Q214 185 258 124T382 62Q459 62 505 112T552 280V524Q552 585 542 604Q538 610 523 616T490 626T464 630Q460 630 460 644T462 662Q516 658 547 657T588 655Q601 655 617 656T655 659Q696 662 706 662Q707
658 707 655T708 646Q708 630 704 630Q695 630 678 627T645 617T623 602Q612 575 612 519V284Q612 128 539 61Q504 28 460 13T358 -2ZM255 723Q245 723 245 742L269 763Q280 773 291 783T313 803Q326 816 336 827T355 850Q363 859 367 859Q372 859 379 850Q394
833 404 821T420 804Q449 777 468 761T489 742Q489 723 479 723Q460 723 367 783Q351 772 327 758T282 733T255 723Z" />
<glyph unicode="&#xdc;" glyph-name="Udieresis" horiz-adv-x="733" d="M358 -2Q238 -2 169 70T100 304V522Q100 585 92 606Q90 612 78 617T51 625T28 629Q24 629 24 644Q24 659 27 662L160 656Q179 656 288 662Q289 658 289 654T290 646Q290 629 286 629Q280
629 265 626T236 617T222 606Q218 591 216 569T214 518V288Q214 185 258 124T382 62Q459 62 505 112T552 280V524Q552 585 542 604Q538 610 523 616T490 626T464 630Q460 630 460 644T462 662Q516 658 547 657T588 655Q601 655 617 656T655 659Q696 662 706 662Q707
658 707 655T708 646Q708 630 704 630Q695 630 678 627T645 617T623 602Q612 575 612 519V284Q612 128 539 61Q504 28 460 13T358 -2ZM461 726Q436 726 419 743T402 785Q402 808 419 825T461 842Q484 842 501 825T518 785Q518 760 501 743T461 726ZM276 726Q251
726 234 743T217 785Q217 808 234 825T276 842Q299 842 316 825T333 785Q333 760 316 743T276 726Z" />
<glyph unicode="&#xdd;" glyph-name="Yacute" horiz-adv-x="657" d="M200 -4Q196 0 196 12Q196 28 199 28Q207 28 222 31T249 41T264 52Q272 82 272 140V288Q272 293 266 308L243 352Q236 366 229 379T215 403L136 543Q121 569 108 587T84 612Q74 619 55 624T26
630Q23 630 23 640T24 654Q36 655 69 655T156 656Q174 656 294 662Q296 658 296 644T292 630Q276 630 256 623T236 602Q236 593 245 576L351 382Q357 377 361 384Q382 416 404 450T444 516T473 570T484 602Q484 613 466 622Q445 630 417 630Q413 630 413 644Q413
658 416 662Q517 656 536 656Q564 656 593 658T646 662Q647 658 647 654T648 646Q648 630 644 630Q629 630 603 621T564 597Q552 580 531 547T484 473T437 394T400 330T385 298V142Q385 113 387 91T393 52Q395 48 407 42T434 32T454 28Q458 28 458 12Q458 7 458
3T456 -4Q420 -1 390 1T331 3Q313 3 285 2T233 -1T200 -4ZM319 733Q315 733 311 738T307 750Q307 753 320 767T352 801T392 838T427 867Q433 870 445 870Q467 870 483 861T499 837Q499 826 483 813T441 785T390 759T345 740T319 733Z" />
<glyph unicode="&#xde;" glyph-name="Thorn" horiz-adv-x="564" d="M32 -4Q28 0 28 12Q28 30 32 30Q40 30 55 33T83 41T98 52Q105 77 105 136V522Q105 588 98 606Q95 612 82 617T55 625T33 629Q29 629 29 644Q29 659 32 662L164 656Q183 656 292 662Q295 655 295
646Q295 629 291 629Q285 629 270 626T242 617T226 606Q219 578 219 522Q219 516 219 513T218 510Q218 504 222 504Q234 504 256 510T304 516Q331 516 358 511T416 491Q462 469 491 431T520 334Q520 285 494 239T420 164T311 134Q289 134 268 141T240 159Q231 173
233 182T239 191Q262 182 295 182Q342 182 370 221T398 320Q398 466 288 466Q244 466 230 460Q224 457 221 445Q218 433 218 391V140Q218 85 227 52Q229 48 242 43T269 34T290 30Q294 30 294 12Q294 7 294 3T292 -4Q255 -1 224 1T164 3Q147 3 119 2T65 -1T32 -4Z"
/>
<glyph unicode="&#xdf;" glyph-name="germandbls" horiz-adv-x="583" d="M421 -8Q393 -8 366 0T320 19T294 41Q294 106 330 106Q347 106 358 95T376 71Q382 58 393 47T421 36Q441 36 452 58T464 103Q464 130 445 151T398 188Q384 196 370 204T342 220Q314 237
295 264T275 330Q275 357 287 377T316 413L350 444Q367 460 379 487T391 549Q391 597 366 624T294 651Q239 651 222 593Q214 565 212 539T209 475L210 137Q210 112 212 90T218 50Q219 46 230 41T254 31T272 27Q275 27 275 14T274 -4Q267 -3 245 -2T199 1T158 3Q142
3 117 2T70 -1T40 -4Q37 -1 37 12Q37 24 41 24Q49 24 61 27T84 36T96 46Q105 81 105 135L106 361Q106 369 101 369H48Q45 369 45 375Q45 385 50 403T60 421H101Q106 421 106 427V445Q106 527 132 582T205 666T310 694Q361 694 401 679T466 635T490 563Q490 529
476 503T442 461Q422 445 402 432T368 403T354 369Q354 339 379 315T447 268Q556 211 556 134Q556 95 538 63T490 11T421 -8Z" />
<glyph unicode="&#xe0;" glyph-name="agrave" horiz-adv-x="452" d="M141 -7Q91 -7 60 20T28 96Q28 129 49 156T110 202Q124 209 135 213T157 222Q192 233 215 240T249 250Q258 255 258 266V321Q258 356 242 376T199 396Q169 396 152 378T135 325Q135 305 120
296T86 286Q49 286 34 310Q34 334 52 357T99 400T165 430T237 442Q299 442 330 410T361 298V101Q361 60 394 60Q409 60 428 73Q434 72 434 62Q434 43 428 32Q413 20 388 7T340 -6Q317 -6 295 11T266 48Q258 41 254 38T241 28Q220 14 195 4T141 -7ZM192 58Q219 58
238 72T258 104V206L194 184Q171 174 153 160T135 120Q135 88 151 73T192 58ZM267 506Q262 506 245 516T205 544T161 580T125 615T111 642Q111 650 123 659T155 668Q181 668 189 660Q215 630 240 591T281 522Q281 517 277 512T267 506Z" />
<glyph unicode="&#xe1;" glyph-name="aacute" horiz-adv-x="452" d="M141 -7Q91 -7 60 20T28 96Q28 129 49 156T110 202Q124 209 135 213T157 222Q192 233 215 240T249 250Q258 255 258 266V321Q258 356 242 376T199 396Q169 396 152 378T135 325Q135 305 120
296T86 286Q49 286 34 310Q34 334 52 357T99 400T165 430T237 442Q299 442 330 410T361 298V101Q361 60 394 60Q409 60 428 73Q434 72 434 62Q434 43 428 32Q413 20 388 7T340 -6Q317 -6 295 11T266 48Q258 41 254 38T241 28Q220 14 195 4T141 -7ZM192 58Q219 58
238 72T258 104V206L194 184Q171 174 153 160T135 120Q135 88 151 73T192 58ZM182 506Q177 506 172 511T167 522Q167 525 177 541T202 579T233 623T261 660Q269 668 295 668Q316 668 326 659T337 642Q337 632 323 616T288 580T244 544T204 517T182 506Z" />
<glyph unicode="&#xe2;" glyph-name="acircumflex" horiz-adv-x="452" d="M141 -7Q91 -7 60 20T28 96Q28 129 49 156T110 202Q124 209 135 213T157 222Q192 233 215 240T249 250Q258 255 258 266V321Q258 356 242 376T199 396Q169 396 152 378T135 325Q135 305
120 296T86 286Q49 286 34 310Q34 334 52 357T99 400T165 430T237 442Q299 442 330 410T361 298V101Q361 60 394 60Q409 60 428 73Q434 72 434 62Q434 43 428 32Q413 20 388 7T340 -6Q317 -6 295 11T266 48Q258 41 254 38T241 28Q220 14 195 4T141 -7ZM192 58Q219
58 238 72T258 104V206L194 184Q171 174 153 160T135 120Q135 88 151 73T192 58ZM126 492Q117 492 117 516Q142 544 157 561T177 586Q185 596 194 609T215 641Q220 650 226 650Q230 650 236 641L273 588Q296 555 314 537T335 516Q335 492 326 492Q321 492 303 503T264
531T226 562Q211 548 190 532T150 504T126 492Z" />
<glyph unicode="&#xe3;" glyph-name="atilde" horiz-adv-x="452" d="M141 -7Q91 -7 60 20T28 96Q28 129 49 156T110 202Q124 209 135 213T157 222Q192 233 215 240T249 250Q258 255 258 266V321Q258 356 242 376T199 396Q169 396 152 378T135 325Q135 305 120
296T86 286Q49 286 34 310Q34 334 52 357T99 400T165 430T237 442Q299 442 330 410T361 298V101Q361 60 394 60Q409 60 428 73Q434 72 434 62Q434 43 428 32Q413 20 388 7T340 -6Q317 -6 295 11T266 48Q258 41 254 38T241 28Q220 14 195 4T141 -7ZM192 58Q219 58
238 72T258 104V206L194 184Q171 174 153 160T135 120Q135 88 151 73T192 58ZM293 511Q263 511 218 538Q172 564 143 564Q128 564 109 542Q90 520 86 520Q79 520 79 537Q79 554 95 576Q125 616 162 616Q190 616 236 590Q281 563 311 563Q326 563 346 586Q365 608
368 608Q373 608 373 590Q373 570 359 550Q331 511 293 511Z" />
<glyph unicode="&#xe4;" glyph-name="adieresis" horiz-adv-x="452" d="M141 -7Q91 -7 60 20T28 96Q28 129 49 156T110 202Q124 209 135 213T157 222Q192 233 215 240T249 250Q258 255 258 266V321Q258 356 242 376T199 396Q169 396 152 378T135 325Q135 305 120
296T86 286Q49 286 34 310Q34 334 52 357T99 400T165 430T237 442Q299 442 330 410T361 298V101Q361 60 394 60Q409 60 428 73Q434 72 434 62Q434 43 428 32Q413 20 388 7T340 -6Q317 -6 295 11T266 48Q258 41 254 38T241 28Q220 14 195 4T141 -7ZM192 58Q219 58
238 72T258 104V206L194 184Q171 174 153 160T135 120Q135 88 151 73T192 58ZM320 500Q295 500 278 517T261 559Q261 582 278 599T320 616Q343 616 360 599T377 559Q377 534 360 517T320 500ZM135 500Q110 500 93 517T76 559Q76 582 93 599T135 616Q158 616 175
599T192 559Q192 534 175 517T135 500Z" />
<glyph unicode="&#xe5;" glyph-name="aring" horiz-adv-x="452" d="M141 -7Q91 -7 60 20T28 96Q28 129 49 156T110 202Q124 209 135 213T157 222Q192 233 215 240T249 250Q258 255 258 266V321Q258 356 242 376T199 396Q169 396 152 378T135 325Q135 305 120 296T86
286Q49 286 34 310Q34 334 52 357T99 400T165 430T237 442Q299 442 330 410T361 298V101Q361 60 394 60Q409 60 428 73Q434 72 434 62Q434 43 428 32Q413 20 388 7T340 -6Q317 -6 295 11T266 48Q258 41 254 38T241 28Q220 14 195 4T141 -7ZM192 58Q219 58 238 72T258
104V206L194 184Q171 174 153 160T135 120Q135 88 151 73T192 58ZM227 506Q192 506 163 532T133 600Q133 639 161 666T226 694Q264 694 291 667T319 600Q319 560 291 533T227 506ZM226 546Q249 546 264 562T280 600Q280 624 265 639T226 655Q204 655 189 640T173
600Q173 578 188 562T226 546Z" />
<glyph unicode="&#xe6;" glyph-name="ae" horiz-adv-x="662" d="M146 -7Q93 -7 63 23T32 97Q32 116 39 132T56 161Q65 173 83 184T114 202Q127 208 151 216T187 227Q218 235 234 238T256 244Q265 247 265 259V326Q265 357 249 376T208 396Q180 396 160 372T140
313Q140 299 124 293T86 286Q67 286 55 295T42 320Q42 348 70 376T141 424T231 443Q317 443 348 395Q407 442 474 442Q520 442 555 424T609 377Q644 319 646 262Q646 247 638 243T608 235Q535 227 479 221T384 211Q377 211 377 204Q377 142 409 103T504 63Q537
63 563 74T606 96T628 108Q632 108 635 103T638 94Q638 81 634 74Q621 55 595 36T538 5T475 -7Q378 -7 319 67Q254 -7 146 -7ZM384 262Q512 274 534 280Q540 282 540 290Q540 314 532 338T509 379T471 396Q443 396 422 375T389 324T377 268Q377 262 384 262ZM199
57Q226 57 246 71T266 104V195Q188 179 163 157Q142 141 142 115Q142 87 158 72T199 57Z" />
<glyph unicode="&#xe7;" glyph-name="ccedilla" horiz-adv-x="435" d="M242 -6Q181 -6 132 24T54 105T25 218Q25 279 52 329T129 411T242 442Q295 442 336 425T396 386Q396 352 385 330T350 307Q331 307 320 317T296 350Q274 396 229 396Q186 396 161 353T135
243Q135 153 172 110T266 66Q292 66 309 70T342 79Q350 82 362 89T384 103T394 110Q396 109 399 104T402 94Q402 75 379 52T319 11T242 -6ZM447 -154Q419 -154 407 -142Q404 -130 404 -126Q404 -121 408 -117T415 -112Q423 -112 434 -119T458 -126Q478 -126 488
-117T499 -95Q499 -81 491 -73T471 -64Q458 -64 443 -70Q441 -70 436 -65T431 -56Q435 -50 441 -38T454 -16T461 -3H488L472 -28L494 -27Q515 -27 529 -42T543 -77Q543 -112 516 -133T447 -154Z" />
<glyph unicode="&#xe8;" glyph-name="egrave" horiz-adv-x="436" d="M238 -6Q180 -6 132 23T54 103T25 215Q25 283 52 334T125 413T232 442Q281 442 316 424T373 378T406 318T417 259Q417 237 410 232T379 226H140Q133 226 133 220Q133 183 146 150Q159 116 190
91T266 66Q292 66 309 70T342 79Q350 82 362 89T384 103T394 110Q396 109 399 104T402 94Q402 83 396 75Q386 57 363 39T307 7T238 -6ZM140 274H302Q311 274 311 289Q311 313 301 337T271 379T225 396Q194 396 174 375T144 327T134 281Q134 274 140 274ZM270 506Q265
506 248 516T208 544T164 580T128 615T114 642Q114 650 126 659T158 668Q184 668 192 660Q218 630 243 591T284 522Q284 517 280 512T270 506Z" />
<glyph unicode="&#xe9;" glyph-name="eacute" horiz-adv-x="436" d="M238 -6Q180 -6 132 23T54 103T25 215Q25 283 52 334T125 413T232 442Q281 442 316 424T373 378T406 318T417 259Q417 237 410 232T379 226H140Q133 226 133 220Q133 183 146 150Q159 116 190
91T266 66Q292 66 309 70T342 79Q350 82 362 89T384 103T394 110Q396 109 399 104T402 94Q402 83 396 75Q386 57 363 39T307 7T238 -6ZM140 274H302Q311 274 311 289Q311 313 301 337T271 379T225 396Q194 396 174 375T144 327T134 281Q134 274 140 274ZM185 506Q180
506 175 511T170 522Q170 525 180 541T205 579T236 623T264 660Q272 668 298 668Q319 668 329 659T340 642Q340 632 326 616T291 580T247 544T207 517T185 506Z" />
<glyph unicode="&#xea;" glyph-name="ecircumflex" horiz-adv-x="436" d="M238 -6Q180 -6 132 23T54 103T25 215Q25 283 52 334T125 413T232 442Q281 442 316 424T373 378T406 318T417 259Q417 237 410 232T379 226H140Q133 226 133 220Q133 183 146 150Q159 116
190 91T266 66Q292 66 309 70T342 79Q350 82 362 89T384 103T394 110Q396 109 399 104T402 94Q402 83 396 75Q386 57 363 39T307 7T238 -6ZM140 274H302Q311 274 311 289Q311 313 301 337T271 379T225 396Q194 396 174 375T144 327T134 281Q134 274 140 274ZM129
492Q120 492 120 516Q145 544 160 561T180 586Q188 596 197 609T218 641Q223 650 229 650Q233 650 239 641L276 588Q299 555 317 537T338 516Q338 492 329 492Q324 492 306 503T267 531T229 562Q214 548 193 532T153 504T129 492Z" />
<glyph unicode="&#xeb;" glyph-name="edieresis" horiz-adv-x="436" d="M238 -6Q180 -6 132 23T54 103T25 215Q25 283 52 334T125 413T232 442Q281 442 316 424T373 378T406 318T417 259Q417 237 410 232T379 226H140Q133 226 133 220Q133 183 146 150Q159 116
190 91T266 66Q292 66 309 70T342 79Q350 82 362 89T384 103T394 110Q396 109 399 104T402 94Q402 83 396 75Q386 57 363 39T307 7T238 -6ZM140 274H302Q311 274 311 289Q311 313 301 337T271 379T225 396Q194 396 174 375T144 327T134 281Q134 274 140 274ZM323
500Q298 500 281 517T264 559Q264 582 281 599T323 616Q346 616 363 599T380 559Q380 534 363 517T323 500ZM138 500Q113 500 96 517T79 559Q79 582 96 599T138 616Q161 616 178 599T195 559Q195 534 178 517T138 500Z" />
<glyph unicode="&#xec;" glyph-name="igrave" horiz-adv-x="300" d="M33 -3Q29 1 29 16Q29 30 33 30Q41 30 54 34T78 44T91 54Q95 71 97 90T99 128V289Q99 336 83 353Q74 364 61 368T37 373T26 376Q26 406 31 406Q63 410 101 417T171 432L203 440Q210 440 210
420Q210 407 207 383T203 334V144Q203 81 210 54Q212 50 223 44T247 34T265 30Q268 30 268 16T267 -3Q236 -1 204 1T151 3Q120 3 88 1T33 -3ZM439 506Q434 506 417 516T377 544T333 580T297 615T283 642Q283 650 295 659T327 668Q353 668 361 660Q387 630 412 591T453
522Q453 517 449 512T439 506Z" />
<glyph unicode="&#xed;" glyph-name="iacute" horiz-adv-x="300" d="M33 -3Q29 1 29 16Q29 30 33 30Q41 30 54 34T78 44T91 54Q95 71 97 90T99 128V289Q99 336 83 353Q74 364 61 368T37 373T26 376Q26 406 31 406Q63 410 101 417T171 432L203 440Q210 440 210
420Q210 407 207 383T203 334V144Q203 81 210 54Q212 50 223 44T247 34T265 30Q268 30 268 16T267 -3Q236 -1 204 1T151 3Q120 3 88 1T33 -3ZM98 506Q93 506 88 511T83 522Q83 525 93 541T118 579T149 623T177 660Q185 668 211 668Q232 668 242 659T253 642Q253
632 239 616T204 580T160 544T120 517T98 506Z" />
<glyph unicode="&#xee;" glyph-name="icircumflex" horiz-adv-x="300" d="M33 -3Q29 1 29 16Q29 30 33 30Q41 30 54 34T78 44T91 54Q95 71 97 90T99 128V289Q99 336 83 353Q74 364 61 368T37 373T26 376Q26 406 31 406Q63 410 101 417T171 432L203 440Q210 440
210 420Q210 407 207 383T203 334V144Q203 81 210 54Q212 50 223 44T247 34T265 30Q268 30 268 16T267 -3Q236 -1 204 1T151 3Q120 3 88 1T33 -3ZM42 492Q33 492 33 516Q58 544 73 561T93 586Q101 596 110 609T131 641Q136 650 142 650Q146 650 152 641L189 588Q212
555 230 537T251 516Q251 492 242 492Q237 492 219 503T180 531T142 562Q127 548 106 532T66 504T42 492Z" />
<glyph unicode="&#xef;" glyph-name="idieresis" horiz-adv-x="357" d="M272 500Q247 500 230 517T213 559Q213 582 230 599T272 616Q295 616 312 599T329 559Q329 534 312 517T272 500ZM87 500Q62 500 45 517T28 559Q28 582 45 599T87 616Q110 616 127 599T144
559Q144 534 127 517T87 500ZM61 -3Q57 1 57 16Q57 30 61 30Q69 30 82 34T106 44T119 54Q123 71 125 90T127 128V289Q127 336 111 353Q102 364 89 368T65 373T54 376Q54 406 59 406Q91 410 129 417T199 432L231 440Q238 440 238 420Q238 407 235 383T231 334V144Q231
81 238 54Q240 50 251 44T275 34T293 30Q296 30 296 16T295 -3Q264 -1 232 1T179 3Q148 3 116 1T61 -3Z" />
<glyph unicode="&#xf0;" glyph-name="eth" horiz-adv-x="517" d="M257 -6Q195 -6 143 24T59 105T28 216Q28 270 56 322Q83 374 134 408T246 442Q270 442 295 438T330 426Q306 510 241 570L131 500Q107 528 114 534L210 595Q155 635 77 663Q77 671 80 681T89 692Q133
687 177 672T265 630L378 701Q402 673 396 668L299 607Q391 540 431 450T472 266Q472 180 444 119T366 26T257 -6ZM258 40Q307 40 332 86T357 210Q356 254 353 284T343 328Q328 360 300 377T241 395Q193 395 168 349T142 234Q142 182 156 138T196 67T258 40Z" />
<glyph unicode="&#xf1;" glyph-name="ntilde" horiz-adv-x="584" d="M32 -4Q28 0 28 15Q28 30 32 30Q40 30 54 33T81 42T95 52Q102 80 102 125V288Q102 333 86 352Q77 363 64 366T40 371T30 376Q30 404 35 406Q58 408 102 416T186 434Q188 435 195 436T204 438Q208
438 211 431T214 420Q212 406 211 397T210 384Q210 379 212 379Q213 379 216 382Q240 406 277 424T354 442Q483 442 483 237V142Q483 79 490 52Q492 48 504 43T531 34T552 30Q555 30 555 16T554 -4Q550 -3 527 -2T476 1T432 3Q416 3 391 2T343 -1T314 -4Q310 0
310 15Q310 30 314 30Q322 30 335 33T359 42T372 52Q376 67 378 85T380 125V220Q380 303 358 336T286 369Q254 369 230 352T206 314V142Q206 79 213 52Q215 48 227 43T253 34T272 30Q276 30 276 16T275 -4Q270 -3 247 -2T197 1T155 3Q139 3 112 2T62 -1T32 -4ZM359
511Q329 511 284 538Q238 564 209 564Q194 564 175 542Q156 520 152 520Q145 520 145 537Q145 554 161 576Q191 616 228 616Q256 616 302 590Q347 563 377 563Q392 563 412 586Q431 608 434 608Q439 608 439 590Q439 570 425 550Q397 511 359 511Z" />
<glyph unicode="&#xf2;" glyph-name="ograve" horiz-adv-x="507" d="M254 -7Q191 -7 140 23T58 105T27 218Q27 281 57 331T138 412T253 442Q316 442 367 412T449 331T480 218Q480 156 450 105T369 24T254 -7ZM264 40Q296 40 318 61T352 117T364 194Q364 248 350
293T308 367T240 395Q209 395 187 374T153 318T141 241Q141 187 155 142T198 68T264 40ZM295 506Q290 506 273 516T233 544T189 580T153 615T139 642Q139 650 151 659T183 668Q209 668 217 660Q243 630 268 591T309 522Q309 517 305 512T295 506Z" />
<glyph unicode="&#xf3;" glyph-name="oacute" horiz-adv-x="507" d="M254 -7Q191 -7 140 23T58 105T27 218Q27 281 57 331T138 412T253 442Q316 442 367 412T449 331T480 218Q480 156 450 105T369 24T254 -7ZM264 40Q296 40 318 61T352 117T364 194Q364 248 350
293T308 367T240 395Q209 395 187 374T153 318T141 241Q141 187 155 142T198 68T264 40ZM210 506Q205 506 200 511T195 522Q195 525 205 541T230 579T261 623T289 660Q297 668 323 668Q344 668 354 659T365 642Q365 632 351 616T316 580T272 544T232 517T210 506Z"
/>
<glyph unicode="&#xf4;" glyph-name="ocircumflex" horiz-adv-x="507" d="M254 -7Q191 -7 140 23T58 105T27 218Q27 281 57 331T138 412T253 442Q316 442 367 412T449 331T480 218Q480 156 450 105T369 24T254 -7ZM264 40Q296 40 318 61T352 117T364 194Q364 248
350 293T308 367T240 395Q209 395 187 374T153 318T141 241Q141 187 155 142T198 68T264 40ZM154 492Q145 492 145 516Q170 544 185 561T205 586Q213 596 222 609T243 641Q248 650 254 650Q258 650 264 641L301 588Q324 555 342 537T363 516Q363 492 354 492Q349
492 331 503T292 531T254 562Q239 548 218 532T178 504T154 492Z" />
<glyph unicode="&#xf5;" glyph-name="otilde" horiz-adv-x="507" d="M254 -7Q191 -7 140 23T58 105T27 218Q27 281 57 331T138 412T253 442Q316 442 367 412T449 331T480 218Q480 156 450 105T369 24T254 -7ZM264 40Q296 40 318 61T352 117T364 194Q364 248 350
293T308 367T240 395Q209 395 187 374T153 318T141 241Q141 187 155 142T198 68T264 40ZM321 511Q291 511 246 538Q200 564 171 564Q156 564 137 542Q118 520 114 520Q107 520 107 537Q107 554 123 576Q153 616 190 616Q218 616 264 590Q309 563 339 563Q354 563
374 586Q393 608 396 608Q401 608 401 590Q401 570 387 550Q359 511 321 511Z" />
<glyph unicode="&#xf6;" glyph-name="odieresis" horiz-adv-x="507" d="M254 -7Q191 -7 140 23T58 105T27 218Q27 281 57 331T138 412T253 442Q316 442 367 412T449 331T480 218Q480 156 450 105T369 24T254 -7ZM264 40Q296 40 318 61T352 117T364 194Q364 248
350 293T308 367T240 395Q209 395 187 374T153 318T141 241Q141 187 155 142T198 68T264 40ZM348 500Q323 500 306 517T289 559Q289 582 306 599T348 616Q371 616 388 599T405 559Q405 534 388 517T348 500ZM163 500Q138 500 121 517T104 559Q104 582 121 599T163
616Q186 616 203 599T220 559Q220 534 203 517T163 500Z" />
<glyph unicode="&#xf7;" glyph-name="divide" horiz-adv-x="524" d="M205 434V438Q205 462 220 475T256 491T294 482T315 443V438Q315 415 300 401T264 385T226 394T205 434ZM32 213L28 215Q26 219 26 222Q26 229 27 242T32 268T40 280H489Q496 279 496 270Q496
254 488 220Q487 214 482 214L480 213H32ZM260 0Q238 0 223 14T205 52V56Q205 82 220 96T256 111T294 99T315 58V56Q315 35 298 18T260 0Z" />
<glyph unicode="&#xf8;" glyph-name="oslash" horiz-adv-x="506" d="M139 -28Q116 -20 110 -11L105 0L123 33Q79 64 53 113T27 218Q27 281 57 332T138 414T253 445Q297 445 339 428L357 459Q361 463 367 462Q379 462 399 442Q403 438 403 432L387 402Q430 370
454 322T479 218Q479 156 449 105T368 24T253 -7Q209 -7 170 8L150 -27Q149 -31 139 -28ZM167 112L309 373Q280 399 243 399Q209 399 187 377T153 320T141 242Q141 169 167 112ZM265 40Q299 40 320 61T353 118T364 195Q364 266 341 320L200 63Q226 40 265 40Z"
/>
<glyph unicode="&#xf9;" glyph-name="ugrave" horiz-adv-x="555" d="M217 -6Q172 -6 144 21T103 90T90 176V288Q90 336 74 352Q65 363 52 367T28 373T17 376Q17 404 22 406Q46 408 76 413T132 423T168 432Q176 434 183 436T191 438Q196 438 198 431T201 420Q192
353 192 332V212Q192 134 214 100T285 66Q317 66 339 85T361 123V288Q361 336 345 352Q336 363 323 367T299 372T288 376Q288 405 294 406Q313 408 342 413T401 424T454 436L462 438Q467 438 470 431T472 420Q468 386 466 365T464 334V136Q464 111 466 93T472 66Q476
58 488 56T511 53T526 52Q530 51 530 43Q530 39 528 30T522 20Q500 20 457 12T367 -6Q360 -6 360 10V54Q360 59 357 59Q334 34 296 14T217 -6ZM319 506Q314 506 297 516T257 544T213 580T177 615T163 642Q163 650 175 659T207 668Q233 668 241 660Q267 630 292
591T333 522Q333 517 329 512T319 506Z" />
<glyph unicode="&#xfa;" glyph-name="uacute" horiz-adv-x="555" d="M217 -6Q172 -6 144 21T103 90T90 176V288Q90 336 74 352Q65 363 52 367T28 373T17 376Q17 404 22 406Q46 408 76 413T132 423T168 432Q176 434 183 436T191 438Q196 438 198 431T201 420Q192
353 192 332V212Q192 134 214 100T285 66Q317 66 339 85T361 123V288Q361 336 345 352Q336 363 323 367T299 372T288 376Q288 405 294 406Q313 408 342 413T401 424T454 436L462 438Q467 438 470 431T472 420Q468 386 466 365T464 334V136Q464 111 466 93T472 66Q476
58 488 56T511 53T526 52Q530 51 530 43Q530 39 528 30T522 20Q500 20 457 12T367 -6Q360 -6 360 10V54Q360 59 357 59Q334 34 296 14T217 -6ZM234 506Q229 506 224 511T219 522Q219 525 229 541T254 579T285 623T313 660Q321 668 347 668Q368 668 378 659T389
642Q389 632 375 616T340 580T296 544T256 517T234 506Z" />
<glyph unicode="&#xfb;" glyph-name="ucircumflex" horiz-adv-x="555" d="M217 -6Q172 -6 144 21T103 90T90 176V288Q90 336 74 352Q65 363 52 367T28 373T17 376Q17 404 22 406Q46 408 76 413T132 423T168 432Q176 434 183 436T191 438Q196 438 198 431T201 420Q192
353 192 332V212Q192 134 214 100T285 66Q317 66 339 85T361 123V288Q361 336 345 352Q336 363 323 367T299 372T288 376Q288 405 294 406Q313 408 342 413T401 424T454 436L462 438Q467 438 470 431T472 420Q468 386 466 365T464 334V136Q464 111 466 93T472 66Q476
58 488 56T511 53T526 52Q530 51 530 43Q530 39 528 30T522 20Q500 20 457 12T367 -6Q360 -6 360 10V54Q360 59 357 59Q334 34 296 14T217 -6ZM178 492Q169 492 169 516Q194 544 209 561T229 586Q237 596 246 609T267 641Q272 650 278 650Q282 650 288 641L325
588Q348 555 366 537T387 516Q387 492 378 492Q373 492 355 503T316 531T278 562Q263 548 242 532T202 504T178 492Z" />
<glyph unicode="&#xfc;" glyph-name="udieresis" horiz-adv-x="555" d="M217 -6Q172 -6 144 21T103 90T90 176V288Q90 336 74 352Q65 363 52 367T28 373T17 376Q17 404 22 406Q46 408 76 413T132 423T168 432Q176 434 183 436T191 438Q196 438 198 431T201 420Q192
353 192 332V212Q192 134 214 100T285 66Q317 66 339 85T361 123V288Q361 336 345 352Q336 363 323 367T299 372T288 376Q288 405 294 406Q313 408 342 413T401 424T454 436L462 438Q467 438 470 431T472 420Q468 386 466 365T464 334V136Q464 111 466 93T472 66Q476
58 488 56T511 53T526 52Q530 51 530 43Q530 39 528 30T522 20Q500 20 457 12T367 -6Q360 -6 360 10V54Q360 59 357 59Q334 34 296 14T217 -6ZM372 500Q347 500 330 517T313 559Q313 582 330 599T372 616Q395 616 412 599T429 559Q429 534 412 517T372 500ZM187
500Q162 500 145 517T128 559Q128 582 145 599T187 616Q210 616 227 599T244 559Q244 534 227 517T187 500Z" />
<glyph unicode="&#xfd;" glyph-name="yacute" horiz-adv-x="512" d="M101 -222Q75 -222 61 -208T47 -176Q47 -150 66 -137Q170 -137 203 -55L230 13L81 360Q71 383 52 394T10 406Q6 406 6 420Q6 437 9 438L63 435Q110 432 134 432Q157 432 197 435Q238 438 248
438Q249 434 249 430T250 420Q250 406 246 406Q240 406 227 403T203 394T192 382V376Q192 368 215 311T285 148L324 247L360 339Q366 356 366 370Q366 383 350 394T302 406Q298 406 298 421Q298 434 302 438Q314 438 351 435Q389 432 412 432Q433 432 464 435Q494
438 508 438Q512 433 512 422Q512 406 508 406Q499 406 483 402T453 389T433 366L250 -76Q190 -222 101 -222ZM238 506Q233 506 228 511T223 522Q223 525 233 541T258 579T289 623T317 660Q325 668 351 668Q372 668 382 659T393 642Q393 632 379 616T344 580T300
544T260 517T238 506Z" />
<glyph unicode="&#xfe;" glyph-name="thorn" horiz-adv-x="540" d="M34 -222Q30 -218 30 -204Q30 -189 34 -189Q42 -189 56 -186T82 -177T96 -166Q104 -136 104 -94V538Q104 580 98 608Q94 624 46 624H38Q32 624 32 640Q32 656 38 656Q68 659 96 664T144 674Q171
682 186 688T204 694H206Q210 694 214 689T218 678Q213 659 210 636T207 584V412Q207 407 210 407Q225 419 252 430T304 441Q365 441 413 412T488 336T516 230Q516 162 484 108T399 23T282 -8Q255 -8 211 6Q207 6 207 -8V-76Q207 -139 214 -166Q216 -171 228 -176T255
-185T276 -189Q279 -189 279 -203T278 -222L226 -219Q180 -216 156 -216Q132 -216 87 -219L34 -222ZM292 40Q338 40 370 82T402 200Q402 281 370 334T281 388Q248 388 228 369T207 318V112Q207 79 234 60T292 40Z" />
<glyph unicode="&#xff;" glyph-name="ydieresis" horiz-adv-x="512" d="M101 -222Q75 -222 61 -208T47 -176Q47 -150 66 -137Q170 -137 203 -55L230 13L81 360Q71 383 52 394T10 406Q6 406 6 420Q6 437 9 438L63 435Q110 432 134 432Q157 432 197 435Q238 438
248 438Q249 434 249 430T250 420Q250 406 246 406Q240 406 227 403T203 394T192 382V376Q192 368 215 311T285 148L324 247L360 339Q366 356 366 370Q366 383 350 394T302 406Q298 406 298 421Q298 434 302 438Q314 438 351 435Q389 432 412 432Q433 432 464 435Q494
438 508 438Q512 433 512 422Q512 406 508 406Q499 406 483 402T453 389T433 366L250 -76Q190 -222 101 -222ZM376 500Q351 500 334 517T317 559Q317 582 334 599T376 616Q399 616 416 599T433 559Q433 534 416 517T376 500ZM191 500Q166 500 149 517T132 559Q132
582 149 599T191 616Q214 616 231 599T248 559Q248 534 231 517T191 500Z" />
<glyph unicode="&#x2013;" glyph-name="endash" horiz-adv-x="499" d="M34 197Q28 202 28 206Q28 214 29 228T34 253T42 265H467Q473 265 473 256Q473 240 464 204Q463 198 457 197H34Z" />
<glyph unicode="&#x2014;" glyph-name="emdash" horiz-adv-x="1033" d="M31 197Q25 202 25 206Q25 214 26 228T31 253T39 265H1002Q1008 265 1008 256Q1008 240 999 204Q998 198 992 197H31Z" />
<glyph unicode="&#x2018;" glyph-name="quoteleft" horiz-adv-x="160" d="M126 706Q132 706 141 700T154 685Q118 664 101 637T83 594Q83 582 93 570T114 546T125 522Q125 505 105 492T59 479Q44 479 31 486Q17 506 17 556Q17 582 27 607T53 650Q74 673 96 689T126 706Z" />
<glyph unicode="&#x2019;" glyph-name="quoteright" horiz-adv-x="162" d="M42 480Q36 480 27 486T14 501Q50 522 67 549T85 592Q85 604 75 616T54 640T43 664Q43 681 63 694T109 707Q124 707 137 700Q151 680 151 630Q151 604 141 579T115 536Q94 513 72 497T42 480Z" />
<glyph unicode="&#x201a;" glyph-name="quotesinglbase" horiz-adv-x="160" d="M39 -102Q33 -102 24 -96T11 -81Q47 -60 64 -33T82 10Q82 22 72 34T51 58T40 82Q40 99 60 112T106 125Q121 125 134 118Q148 98 148 48Q148 22 138 -3T112 -46Q91 -69 69 -85T39 -102Z" />
<glyph unicode="&#x201c;" glyph-name="quotedblleft" horiz-adv-x="320" d="M273 706Q279 706 288 700T301 685Q265 664 248 637T230 594Q230 582 240 570T261 546T272 522Q272 505 252 492T206 479Q191 479 178 486Q164 506 164 556Q164 582 174 607T200 650Q221
673 243 689T273 706ZM125 706Q131 706 140 700T153 685Q117 664 100 637T82 594Q82 582 92 570T113 546T124 522Q124 505 104 492T58 479Q43 479 30 486Q16 506 16 556Q16 582 26 607T52 650Q73 673 95 689T125 706Z" />
<glyph unicode="&#x201d;" glyph-name="quotedblright" horiz-adv-x="321" d="M39 480Q33 480 24 486T11 501Q47 522 64 549T82 592Q82 604 72 616T51 640T40 664Q40 681 60 694T106 707Q121 707 134 700Q148 680 148 630Q148 604 138 579T112 536Q91 513 69 497T39
480ZM181 480Q175 480 166 486T153 501Q189 522 206 549T224 592Q224 604 214 616T193 640T182 664Q182 681 202 694T248 707Q263 707 276 700Q290 680 290 630Q290 604 280 579T254 536Q233 513 211 497T181 480Z" />
<glyph unicode="&#x201e;" glyph-name="quotedblbase" horiz-adv-x="314" d="M43 -102Q37 -102 28 -96T15 -81Q51 -60 68 -33T86 10Q86 22 76 34T55 58T44 82Q44 99 64 112T110 125Q125 125 138 118Q152 98 152 48Q152 22 142 -3T116 -46Q95 -69 73 -85T43 -102ZM191
-102Q185 -102 176 -96T163 -81Q199 -60 216 -33T234 10Q234 22 224 34T203 58T192 82Q192 99 212 112T258 125Q273 125 286 118Q300 98 300 48Q300 22 290 -3T264 -46Q243 -69 221 -85T191 -102Z" />
<glyph unicode="&#x2022;" glyph-name="bullet" horiz-adv-x="409" d="M203 138Q171 138 143 154T97 199T79 263Q79 297 96 325T141 371T203 388Q237 388 265 371T309 326T326 263Q326 227 308 199T262 154T203 138Z" />
<glyph unicode="&#x2039;" glyph-name="guilsinglleft" horiz-adv-x="291" d="M238 73Q227 85 198 109T126 164T32 227Q25 230 25 241Q25 258 33 268Q104 310 157 352T230 414L239 423Q250 420 259 414T268 401Q268 397 251 379T200 328L120 248L158 209L200 167Q262
106 266 100Q267 98 267 94Q267 84 238 73Z" />
<glyph unicode="&#x203a;" glyph-name="guilsinglright" horiz-adv-x="294" d="M54 73Q25 84 25 94Q25 98 26 100Q30 106 92 167L134 209L172 248L92 328Q59 361 42 379T24 401Q24 407 33 413T53 423L62 414Q82 394 135 352T259 268Q267 258 267 241Q267 230 260
227Q209 195 167 164T95 109T54 73Z" />
</font>
</defs>
</svg>
